<svg width="38" height="46" viewBox="0 0 38 46" fill="none" xmlns="http://www.w3.org/2000/svg">
<path d="M29.706 36.2969C32.1742 32.5953 33.5525 28.2038 33.7142 24.1069H26.619C26.619 25.4797 26.1409 28.5775 24.6993 30.7266L17.8785 23.1509C22.3718 20.585 27.0128 17.1925 27.0128 10.9466C27.0128 4.70062 22.0835 0 15.579 0C8.1534 0 2.83732 5.06719 2.83732 11.9456C2.83732 15.755 4.90468 19.1763 7.07752 21.8644C7.0283 21.8931 6.97908 21.9434 6.93688 21.9722C5.43207 22.9641 3.95538 24.1213 2.72481 25.5156C4.67263 26.7087 5.88211 28.7572 5.88211 32.0275C5.88211 36.2178 3.89209 38.4028 0.875427 39.3372C2.90763 43.1178 7.14081 45.5112 12.7593 45.5112C17.5269 45.5112 21.6264 43.9659 24.7908 41.5438L28.3629 45.5112H38.0036L29.7131 36.2969H29.706ZM15.4103 7.00781C18.2933 7.00781 19.8052 8.76156 19.8052 11.3131C19.8052 14.5763 16.7534 16.5312 13.4976 18.285C11.817 16.3444 10.045 14.5762 10.045 12.075C10.045 9.57375 12.0561 7.00781 15.4103 7.00781ZM19.8685 36.3903C18.1035 37.5475 16.0642 38.2088 13.7859 38.2088C9.62305 38.2088 7.29551 36.2681 7.29551 33.0122C7.29551 30.7122 8.5964 29.0375 10.3473 27.6863C10.7341 27.3844 11.1279 27.1041 11.5568 26.8309L20.0513 36.2681C19.9317 36.3544 20.0021 36.3041 19.8755 36.3903H19.8685Z" fill="#EE364A"/>
</svg>
