<svg width="120" height="48" viewBox="0 0 120 48" fill="none" xmlns="http://www.w3.org/2000/svg">
<path d="M12.771 10.3677C16.1544 10.3677 19.3991 11.6237 21.9048 13.9048C21.9774 13.9654 21.9838 14.0751 21.9234 14.1479C19.6477 16.9143 18.4 20.4206 18.3999 24.0181C18.406 24.7096 18.4547 25.3955 18.5455 26.0688C19.5683 33.6281 26.0509 39.4829 33.8648 39.4829C34.6091 39.4829 35.3533 39.4339 36.0855 39.3247C38.2886 39.0032 40.4014 38.2086 42.2837 36.9771C42.314 36.9528 42.3442 36.9468 42.3804 36.9468C42.4288 36.9468 42.4771 36.9651 42.5074 37.0015C42.5679 37.0682 42.5743 37.1591 42.5259 37.2319C38.1621 43.5717 30.9778 47.3568 23.3033 47.3569C23.1277 47.3569 22.9456 47.3511 22.7701 47.3511C16.7539 47.2115 11.0945 44.7851 6.83354 40.5142C2.23974 35.9155 -0.241153 29.5453 0.0190862 23.0356V23.0298C0.0735592 21.6708 0.249071 20.3174 0.539594 18.9888C0.757534 18.1818 1.28378 16.7379 2.5728 14.9849C4.24327 13.0799 6.4161 11.6662 8.87944 10.9321C10.1382 10.556 11.4457 10.3677 12.771 10.3677ZM66.5005 27.6899C66.5004 28.4785 65.8774 29.2849 64.8609 29.3032H56.1812V32.1606H61.731C65.4654 32.1606 67.7837 33.805 67.7837 36.8081C67.7837 39.8112 65.6838 41.5337 62.022 41.5337H52.4585V27.938C52.4588 27.1374 53.1006 26.3433 54.1353 26.3433H66.5005V27.6899ZM90.2515 32.1724H98.1499V27.9438C98.1501 27.0886 98.7553 26.3787 99.7417 26.3423H101.878V39.9204C101.878 40.7817 101.23 41.5337 100.208 41.5337L100.202 41.5151H98.1499V35.1216H90.2515V39.9136C90.2515 40.7144 89.6156 41.522 88.5806 41.522H86.5289V27.938C86.5349 27.1736 87.1101 26.3364 88.1148 26.3364H90.2515V32.1724ZM112.283 32.5913L119.763 41.5278H116.828C116.095 41.5277 114.83 41.2304 113.917 40.1265L109.578 34.7817L107.683 36.3159V39.9263C107.683 40.7937 107.041 41.5337 106.012 41.5337H103.96V27.9507C103.96 27.1438 104.566 26.3845 105.546 26.3481H107.683V32.2759L113.735 27.356C114.364 26.8463 115.206 26.3423 116.29 26.3423H119.993L112.283 32.5913ZM85.3902 41.522H83.1509C82.2855 41.5219 81.2508 41.0546 80.7847 40.2114L79.6529 37.8032H73.2974L72.2076 40.1265C71.7839 41.0241 70.7496 41.5277 69.7935 41.5278H67.5601L74.2173 27.4048C74.6531 26.4948 75.3372 26.3423 75.7427 26.3423H78.2369V26.3306L85.3902 41.522ZM56.1812 38.5796H61.3316C63.226 38.5796 64.0015 38.0695 64.0015 36.8501C64.0013 35.631 63.2016 35.1157 61.3316 35.1157H56.1812V38.5796ZM23.854 0.643066C29.8699 0.782697 35.5287 3.2093 39.7896 7.47998C44.3834 12.0785 46.8652 18.4489 46.605 24.9585V24.9712C46.5505 26.33 46.375 27.6827 46.0845 29.0112C45.8666 29.8181 45.3403 31.262 44.0513 33.0151C42.3809 34.9261 40.2079 36.3277 37.7447 37.0679C36.4857 37.444 35.1776 37.6323 33.8521 37.6323C30.4689 37.6322 27.2249 36.3763 24.7193 34.0952C24.6468 34.0346 24.6405 33.9258 24.7007 33.853C26.9704 31.0866 28.2232 27.5796 28.2232 23.9819C28.2232 23.2904 28.1694 22.6045 28.0787 21.9312C27.0556 14.3721 20.5731 8.51807 12.7593 8.51807C12.0088 8.51807 11.27 8.57216 10.5376 8.67529C8.33476 8.99685 6.22254 9.79156 4.34038 11.0229C4.31018 11.0411 4.2799 11.0541 4.2437 11.0542C4.19548 11.0542 4.14703 11.0356 4.11674 10.9995C4.0563 10.9389 4.04997 10.8418 4.09819 10.769C8.46204 4.42927 15.6463 0.643124 23.3208 0.643066H23.854ZM74.5015 35.2544H78.4478L76.4751 31.063L74.5015 35.2544ZM120 26.3423H119.993L120 26.3364V26.3423ZM66.4468 7.89307C66.4468 8.68782 65.8107 9.43408 64.7818 9.43408H56.1812V12.2915L61.732 12.2983C65.4662 12.2984 67.7846 13.942 67.7847 16.9448C67.7847 19.9479 65.6838 21.6714 62.022 21.6714H52.4654V8.06299C52.4655 7.26843 53.0948 6.48015 54.1294 6.47998H66.4468V7.89307ZM83.3218 7.89307C83.3218 8.7605 82.6681 9.43389 81.6636 9.43408H73.0503V12.2915H78.6011C82.3352 12.2916 84.6529 13.936 84.6529 16.939C84.6529 19.942 82.5529 21.6655 78.8912 21.6655H69.3345V8.07568C69.3345 7.23251 69.9755 6.48018 71.0103 6.47998H83.3218V7.89307ZM95.9468 6.46729C99.6023 6.46742 101.703 8.19068 101.703 11.1997C101.703 14.0693 99.3843 15.8471 95.6499 15.8472H90.106V20.1362C90.1059 20.9734 89.4277 21.6646 88.4957 21.6646H86.3892V8.0083C86.3893 7.15906 87.0252 6.47412 88.0601 6.47412L95.9468 6.46729ZM56.1812 18.7163H61.3326C63.2267 18.7163 63.9956 18.207 63.9956 16.9878C63.9956 15.7684 63.2026 15.2525 61.3326 15.2524H56.1812V18.7163ZM73.0503 18.7163H78.2007C80.095 18.7163 80.8705 18.207 80.8707 16.9878C80.8707 15.7684 80.071 15.2524 78.2007 15.2524H73.0503V18.7163ZM90.1119 12.8979H95.2623C97.1323 12.8979 97.9311 12.3949 97.9312 11.1636C97.9312 9.93201 97.1567 9.42822 95.2623 9.42822H90.1119V12.8979Z" fill="white"/>
</svg>
