<svg width="118" height="40" viewBox="0 0 118 40" fill="none" xmlns="http://www.w3.org/2000/svg">
<path d="M11.7529 37.4727C17.8216 37.4727 22.7373 37.7774 22.7373 38.0879V38.749C22.7365 39.0537 17.8211 39.3643 11.7529 39.3643C5.68486 39.3642 0.769306 39.0537 0.768555 38.749V38.0879C0.768555 37.7774 5.6844 37.4727 11.7529 37.4727ZM11.8447 25.7783C17.8618 25.7783 22.7258 27.4689 22.7373 29.5732V30.6885C22.7488 32.8043 17.8392 34.5405 11.7705 34.5635C5.70756 34.5807 0.78015 32.8844 0.774414 30.7686L0.768555 30.7637V29.6533C0.763173 27.5318 5.67372 25.8013 11.7422 25.7783H11.8447ZM66.1875 8.59375C70.4981 8.59378 72.8432 10.5119 72.8525 10.5195L70.7305 13.8086C68.9294 12.7909 66.2158 12.8193 66.2158 12.8193C64.1567 12.8194 62.4187 13.4977 61.002 14.8545C59.6311 16.1884 58.9424 17.9022 58.9424 19.9893C58.9425 22.0762 59.6487 23.7955 61.0654 25.1523C62.4478 26.4803 64.2201 27.1476 66.3652 27.1533V27.1475C66.9503 27.136 69.176 27.0321 70.7305 26.1582L72.8525 29.4473C72.8255 29.4694 70.4816 31.373 66.1875 31.373C62.723 31.373 59.8776 30.217 57.7266 28.1816C55.4783 26.0142 54.3545 23.3179 54.3545 19.9834C54.3545 16.6487 55.4668 13.9115 57.6924 11.7842C59.8491 9.74889 62.7115 8.59375 66.1875 8.59375ZM49.8857 13.0723H38.46V16.5791H43.1572C45.7212 16.5791 47.7296 17.2462 49.1865 18.5801H49.1807C50.6776 19.9369 51.4286 21.6675 51.4287 23.7773C51.4287 25.8874 50.6947 27.6187 49.2148 28.9756C47.735 30.2922 45.7154 30.9473 43.1572 30.9473H33.9629V9.03613H49.8857V13.0723ZM115.694 9.03613V13.0723H104.269V16.5791H108.967C111.531 16.5792 113.538 17.2463 114.995 18.5801H114.989C116.486 19.9369 117.237 21.6674 117.237 23.7773C117.237 25.8874 116.503 27.6187 115.023 28.9756C113.544 30.292 111.525 30.9472 108.967 30.9473H99.7715V9.03613H115.694ZM94.7471 30.9414H90.2842V13.0664H80.9463V30.9414H76.4492V9.03027H94.7471V30.9414ZM38.46 26.9688H42.8135C44.1268 26.9687 45.1363 26.6873 45.8418 26.124C46.5473 25.5606 46.9033 24.7433 46.9033 23.6797C46.9033 22.6164 46.5419 21.7944 45.8252 21.208C45.1082 20.6273 44.104 20.334 42.8135 20.334H38.46V26.9688ZM104.269 20.334V26.9688H108.622C109.936 26.9688 110.946 26.6875 111.651 26.124C112.357 25.5606 112.712 24.7433 112.712 23.6797C112.712 22.6163 112.351 21.7944 111.634 21.208C110.917 20.6273 109.913 20.334 108.622 20.334H104.269ZM11.7529 0.635742C12.969 0.635742 14.1969 0.83723 15.4072 1.2627C21.1258 3.28087 24.1256 9.57054 22.1123 15.3027C20.5923 19.6321 16.6516 22.4039 12.3496 22.6396H11.1621C10.1471 22.5821 9.11477 22.3808 8.10547 22.0244L8.09961 22.0186C3.59685 20.4317 0.774167 16.1997 0.762695 11.6748V11.6113C0.768459 10.4098 0.969121 9.18496 1.39355 7.9834C2.98815 3.4644 7.22736 0.635856 11.7529 0.635742Z" fill="white"/>
</svg>
