<svg width="256" height="140" viewBox="0 0 256 140" fill="none" xmlns="http://www.w3.org/2000/svg">
<mask id="mask0_2510_773" style="mask-type:alpha" maskUnits="userSpaceOnUse" x="0" y="42" width="110" height="98">
<rect width="109.032" height="97.2637" transform="matrix(1 0 0 -1 0 140)" fill="#282828"/>
</mask>
<g mask="url(#mask0_2510_773)">
<path d="M56.7142 166.579C27.8718 166.579 4.39648 143.295 4.39648 114.657C4.39648 86.0199 27.8579 62.7363 56.7142 62.7363C85.5705 62.7363 109.032 86.0199 109.032 114.657C109.032 143.295 85.5705 166.579 56.7142 166.579ZM103.567 127.012C101.267 129.018 97.1409 131.162 94.8965 132.255C93.8231 134.455 88.721 144.333 80.9145 152.177C80.8169 153.353 80.6914 154.944 80.5799 156.521C91.7599 150.212 100.18 139.629 103.553 127.012H103.567ZM62.0115 149.894L62.2485 150.669C67.5318 151.776 75.5753 151.015 79.1998 150.586C86.7693 142.977 91.8715 133.099 92.8194 131.162C91.509 127.51 88.247 119.873 86.9924 116.982H86.5602L66.319 118.158L65.0923 118.42L54.1213 133.057C56.4633 139.449 61.9 149.673 61.9697 149.783L62.0254 149.894H62.0115ZM59.9902 151.374L59.8089 150.78C59.1677 149.576 54.0795 139.933 51.8072 133.638L33.8104 128.105C30.7575 130.775 24.0662 136.668 21.4593 139.352C22.9928 144.333 26.9936 151.153 28.541 153.782C34.3959 157.946 41.2127 160.851 48.587 162.082C53.5079 158.375 58.0943 153.491 59.9902 151.374ZM19.1731 96.7555C14.3219 99.6608 10.6417 102.552 9.12222 105.402C8.53673 108.39 8.21612 111.475 8.21612 114.644C8.21612 119.015 8.81555 123.263 9.91683 127.302C14.2522 134.261 18.267 136.641 20.0653 137.415C23.0067 134.455 29.4889 128.755 32.3885 126.223V108.114C28.1646 104.378 22.24 99.2457 19.1731 96.7555ZM25.1117 78.1895C25.1117 78.1895 25.1814 78.1895 25.2232 78.1895C39.9301 70.3868 47.1233 70.0963 49.1865 70.2346C50.232 69.3215 51.8351 67.9934 53.8565 66.61C42.9134 67.2463 32.9322 71.5074 25.1256 78.1757L25.1117 78.1895ZM49.8277 72.6833L49.3259 72.6003C49.3259 72.6003 47.653 72.3098 43.931 73.1537C40.5575 73.9146 34.7583 75.7685 26.199 80.3339C23.871 85.3005 21.6406 90.7375 20.5811 94.9017C24.2753 97.89 31.2733 104.019 33.8661 106.301L50.2599 99.5916C51.9327 95.04 57.2857 84.7194 58.8052 81.8003C57.0348 79.7667 52.8388 75.0491 49.8138 72.6972L49.8277 72.6833ZM78.5586 80.8457C74.9062 80.7489 66.5699 80.7212 61.2587 82.2154C58.7355 87.016 54.1213 96.0499 52.5879 100.103L65.3292 115.958L65.9844 115.82L86.4348 114.644L87.076 114.616C88.4003 111.572 91.1884 103.839 92.5685 100.007C91.509 97.3504 87.8845 89.5477 79.5762 81.7588C79.2277 81.4406 78.8931 81.1363 78.5586 80.8457ZM79.7435 72.3236C80.0641 74.4127 80.3569 76.9444 80.3987 79.3378C80.6635 79.573 80.9284 79.8082 81.1932 80.071C89.1113 87.4864 92.917 94.8463 94.3946 98.2773L103.651 102.58C100.236 89.5339 91.4393 78.6184 79.7574 72.3236H79.7435Z" fill="#2F2F2F"/>
</g>
<path d="M240.086 43.3072C239.517 41.9441 239.296 40.533 239.296 38.9856C239.296 35.7143 241.555 32.9241 242.362 29.8292C244.306 22.4128 240.188 15.309 235.305 9.73663C232.528 6.5696 228.944 3.54689 224.562 1.78297C212.937 -2.91546 203.375 2.87339 200.258 5.399C200.165 5.47918 200.063 5.55936 199.952 5.65557C196.683 8.43775 194.195 12.134 192.938 16.1188C189.414 27.2876 196.683 37.823 205.888 44.2853C207.086 45.1272 208.334 45.929 209.642 46.6025C213.743 48.7112 218.482 48.655 220.639 48.2782C220.664 48.2782 220.69 48.2702 220.707 48.2622C222.652 47.9094 226.617 46.5063 229.488 46.9232C231.05 47.1477 232.443 47.5486 233.734 48.2381L247.338 64.6105C250.718 63.3597 253.274 61.2831 255.032 58.3806L240.069 43.3232L240.086 43.3072ZM222.329 16.3192C219.289 16.3192 216.826 13.9941 216.826 11.1237C216.826 8.25334 219.289 5.92817 222.329 5.92817C225.369 5.92817 227.832 8.25334 227.832 11.1237C227.832 13.9941 225.369 16.3192 222.329 16.3192Z" fill="#2F2F2F"/>
</svg>
