<svg width="101" height="170" viewBox="0 0 101 170" fill="none" xmlns="http://www.w3.org/2000/svg">
<path d="M89.1406 149.624L100.182 151.226L92.1963 159.008L94.0762 170L84.2119 164.813L74.3408 170L76.2207 159.008L68.2354 151.226L79.2764 149.624L84.2119 139.621L89.1406 149.624ZM55.0195 147.54C54.2796 150.2 53.8799 153 53.8799 155.89V156.41H8.40039V154.74C8.40039 150.76 11.6201 147.54 15.5801 147.54H55.0195ZM67.4004 109.27C70.1102 109.27 72.3096 111.471 72.3096 114.19V128.47C65.2097 131.51 59.4798 137.13 56.2998 144.15H23.0303C20.3204 144.15 18.1204 141.95 18.1201 139.23V114.19C18.1201 111.47 20.3203 109.27 23.0303 109.27H67.4004ZM73.79 0C75.1 2.07713e-05 76.1699 1.06995 76.1699 2.37988V4.75977H88.0596C89.3795 4.75977 90.4402 5.83981 90.4404 7.13965V31.0098C90.4104 43.2297 84.1803 54.6104 73.9004 61.1904V61.25C74.3004 67.3699 79.5898 71.9899 85.6797 71.5801C86.9997 71.5801 88.0595 72.66 88.0596 73.96C88.0596 75.26 87.0097 76.3398 85.6797 76.3398C78.1098 76.7997 71.3301 71.6797 69.6602 64.2598C66.4702 68.4098 62.29 71.69 57.5 73.79C58.61 74.93 59.2997 76.4102 59.4697 77.9902C59.8896 81.8802 57.0699 85.3996 53.1699 85.8096L58.9102 104.98H31.5703L37.3096 85.8096C35.7297 85.6395 34.25 84.9495 33.1201 83.8496C30.3103 81.1096 30.23 76.6 32.96 73.79C28.17 71.69 23.9798 68.4098 20.7998 64.2598C19.1298 71.6797 12.3502 76.7897 4.78027 76.3398C3.47027 76.3398 2.40039 75.28 2.40039 73.96C2.40041 72.64 3.47029 71.5801 4.78027 71.5801C10.88 71.9599 16.1393 67.3001 16.5596 61.1904C6.24964 54.6204 0.0399999 43.2495 0 31.0195V7.15039C0 5.84043 1.06994 4.7696 2.37988 4.76953H14.29V2.38965C14.2902 1.07983 15.3401 0.00980756 16.6699 0.00976562H73.79V0ZM4.75 31.04L4.76367 31.8828C5.02368 40.6775 8.99665 48.9652 15.7197 54.6904C14.7597 51.6604 14.2695 48.5098 14.2695 45.3398V9.54004H4.75V31.04ZM76.1602 45.9102C76.1001 48.8801 75.6199 51.83 74.71 54.6699C81.64 48.7799 85.6599 40.1198 85.6699 31.0098V9.54004H76.1602V45.9102Z" fill="#6D6D6D"/>
</svg>
