<svg width="101" height="170" viewBox="0 0 101 170" fill="none" xmlns="http://www.w3.org/2000/svg">
<path d="M92.1966 159.008L94.0761 170L84.2119 164.814L74.3407 170L76.2203 159.008L68.2357 151.225L79.2763 149.624L84.2119 139.621L89.1405 149.624L100.181 151.225L92.1966 159.008Z" fill="#EE364A"/>
<path d="M55.02 147.54C54.28 150.2 53.88 153 53.88 155.89C53.88 156.06 53.88 156.24 53.88 156.41H8.4V154.74C8.4 150.76 11.62 147.54 15.58 147.54H55.02ZM67.4 109.27C70.11 109.27 72.31 111.47 72.31 114.19V128.47C65.21 131.51 59.48 137.13 56.3 144.15H23.03C20.32 144.15 18.12 141.95 18.12 139.23V114.19C18.12 111.47 20.32 109.27 23.03 109.27H67.41H67.4ZM73.79 0C75.1 0 76.17 1.07 76.17 2.38V4.76H88.06C89.38 4.76 90.44 5.84 90.44 7.14V31.01C90.41 43.23 84.18 54.61 73.9 61.19V61.25C74.3 67.37 79.59 71.99 85.68 71.58C87 71.58 88.06 72.66 88.06 73.96C88.06 75.26 87.01 76.34 85.68 76.34C78.11 76.8 71.33 71.68 69.66 64.26C66.47 68.41 62.29 71.69 57.5 73.79C58.61 74.93 59.3 76.41 59.47 77.99C59.89 81.88 57.07 85.4 53.17 85.81L58.91 104.98H31.57L37.31 85.81C35.73 85.64 34.25 84.95 33.12 83.85C30.31 81.11 30.23 76.6 32.96 73.79C28.17 71.69 23.98 68.41 20.8 64.26C19.13 71.68 12.35 76.79 4.78 76.34C3.47 76.34 2.4 75.28 2.4 73.96C2.4 72.64 3.47 71.58 4.78 71.58C10.88 71.96 16.14 67.3 16.56 61.19C6.25 54.62 0.04 43.25 0 31.02V7.15C0 5.84 1.07 4.77 2.38 4.77H14.29V2.39C14.29 1.08 15.34 0.01 16.67 0.01H73.79V0ZM4.75 31.03C4.77 40.14 8.78 48.78 15.72 54.69C14.76 51.66 14.27 48.51 14.27 45.34V9.54H4.75V31.04V31.03ZM76.16 45.33V45.91C76.1 48.88 75.62 51.83 74.71 54.67C81.64 48.78 85.66 40.12 85.67 31.01V9.54H76.16V45.34V45.33Z" fill="#8C8C8C"/>
</svg>
