<svg width="180" height="98" viewBox="0 0 180 98" fill="none" xmlns="http://www.w3.org/2000/svg">
<path d="M29.8535 97.5908H0V0H29.8535V97.5908ZM53.7822 68.5127C55.5215 68.5127 57.1568 68.823 58.6582 69.4287C60.1746 70.0345 61.5277 70.8478 62.7021 71.8525C63.8914 72.8572 64.873 73.9796 65.6758 75.2354C66.4637 76.4912 66.999 77.7625 67.2666 79.0332L59.1641 79.6973C58.8965 79.0473 58.5095 78.442 57.9893 77.9102C57.573 77.4669 57.0081 77.053 56.3242 76.6836C55.6403 76.3142 54.7778 76.1221 53.752 76.1221C52.8452 76.1221 51.9978 76.2999 51.21 76.6396C50.4073 76.9795 49.7233 77.4518 49.1436 78.0723C48.5638 78.678 48.088 79.4167 47.7461 80.2588C47.4042 81.1158 47.2256 82.047 47.2256 83.0518C47.2256 84.0563 47.4043 85.0017 47.7461 85.8438C48.088 86.7007 48.5637 87.4255 49.1436 88.0312C49.7233 88.6369 50.4222 89.1241 51.21 89.4639C51.9978 89.8037 52.8452 89.9814 53.752 89.9814C54.7778 89.9814 55.6255 89.7893 56.3242 89.4199C57.0081 89.0505 57.573 88.6366 57.9893 88.1934C58.4947 87.6615 58.8965 87.0554 59.1641 86.4053L67.2666 87.0703C66.999 88.3558 66.4637 89.627 65.6758 90.8682C64.873 92.1239 63.8914 93.2463 62.7021 94.251C61.5128 95.2557 60.1597 96.0542 58.6582 96.6748C57.1419 97.2805 55.5215 97.5908 53.7822 97.5908C51.7457 97.5908 49.8575 97.2212 48.1182 96.4678C46.3788 95.729 44.862 94.6946 43.5537 93.4092C42.2454 92.109 41.2346 90.5719 40.4912 88.7988C39.7628 87.0259 39.3906 85.1054 39.3906 83.0518C39.3906 80.998 39.7627 79.0767 40.4912 77.3037C41.2197 75.5309 42.2455 73.9945 43.5537 72.6943C44.862 71.3941 46.3788 70.3745 48.1182 69.6357C49.8575 68.8971 51.7456 68.5127 53.7822 68.5127ZM114.289 68.5127C116.326 68.5127 118.184 68.8823 119.938 69.6357C121.693 70.3745 123.224 71.409 124.532 72.6943C125.84 73.9944 126.851 75.5309 127.595 77.3037C128.323 79.0767 128.694 80.998 128.694 83.0518C128.694 85.1053 128.323 87.0259 127.595 88.7988C126.866 90.5718 125.84 92.109 124.532 93.4092C123.224 94.7093 121.693 95.729 119.938 96.4678C118.184 97.2065 116.296 97.5908 114.289 97.5908C112.282 97.5908 110.363 97.2213 108.624 96.4678C106.885 95.729 105.369 94.6945 104.061 93.4092C102.752 92.109 101.741 90.5719 100.998 88.7988C100.27 87.0259 99.8975 85.1054 99.8975 83.0518C99.8975 80.998 100.27 79.0767 100.998 77.3037C101.727 75.5309 102.752 73.9944 104.061 72.6943C105.369 71.3942 106.885 70.3745 108.624 69.6357C110.363 68.897 112.252 68.5127 114.289 68.5127ZM96.0625 97.1328H88.1836V76.5508H78.5049V97.1328H70.626V68.9561H96.0625V97.1328ZM180 76.5508H172.344V97.1318H164.479V76.5508H156.822V68.9414H180V76.5508ZM144.454 68.9561C146.015 68.9561 147.442 69.2068 148.75 69.709C150.058 70.2113 151.174 70.9211 152.11 71.8076C153.047 72.7089 153.76 73.7581 154.266 74.9844C154.771 76.2107 155.024 77.555 155.024 79.0029C155.024 80.4508 154.771 81.81 154.266 83.0215C153.76 84.2477 153.032 85.297 152.11 86.1982C151.174 87.0995 150.058 87.7945 148.75 88.2969C147.442 88.7991 146.015 89.0498 144.454 89.0498H140.41V97.1025H132.53V68.9268H144.454V68.9561ZM114.289 76.1221C113.382 76.1221 112.534 76.2998 111.746 76.6396C110.943 76.9795 110.259 77.4518 109.68 78.0723C109.1 78.678 108.624 79.4167 108.282 80.2588C107.94 81.1158 107.762 82.047 107.762 83.0518C107.762 84.071 107.94 85.0017 108.282 85.8438C108.624 86.7007 109.1 87.4255 109.68 88.0312C110.259 88.6369 110.958 89.124 111.746 89.4639C112.534 89.8037 113.382 89.9814 114.289 89.9814C115.196 89.9814 116.043 89.8036 116.831 89.4639C117.619 89.1241 118.318 88.6517 118.897 88.0312C119.477 87.4255 119.953 86.6859 120.295 85.8438C120.637 84.9869 120.815 84.0563 120.815 83.0518C120.815 82.047 120.637 81.101 120.295 80.2588C119.953 79.402 119.477 78.678 118.897 78.0723C118.318 77.4666 117.619 76.9795 116.831 76.6396C116.028 76.2999 115.196 76.1221 114.289 76.1221ZM7.33496 78.4355L17.8262 79.3262C18.5937 79.3941 19.1907 79.6318 19.6172 80.0391C20.0437 80.4294 20.2568 80.9132 20.2568 81.4902V81.999H23.4561C23.4901 81.8633 23.5152 81.7106 23.5322 81.541C23.5493 81.4053 23.5586 81.2442 23.5586 81.0576C23.5757 80.8709 23.584 80.6753 23.584 80.4717C23.5839 79.131 23.1576 78.0445 22.3047 77.2129C21.4347 76.3813 20.1973 75.8975 18.5938 75.7617L10.918 75.126V70.7979H23.4561V67.1064H7.33496V78.4355ZM140.41 81.9287H143.785C144.692 81.9286 145.435 81.6327 146.029 81.0566C146.624 80.4804 146.937 79.8007 146.937 79.0176C146.936 78.2346 146.639 77.5695 146.029 76.9785C145.435 76.4026 144.677 76.1075 143.785 76.1074H140.41V81.9287ZM124.889 55.2744H128.056V68.0254H120.176V62.8838H106.216V68.0254H98.3369V55.2744H100.136C100.522 55.0676 100.879 54.7864 101.221 54.417C101.518 54.0919 101.801 53.6783 102.054 53.1611C102.306 52.6588 102.499 52.0084 102.618 51.2402L104.641 34.6924H124.889V55.2744ZM52.2051 34.249C54.212 34.249 56.1002 34.6186 57.8545 35.3721C59.6086 36.1108 61.1401 37.1444 62.4482 38.4297C63.7565 39.7299 64.7674 41.2671 65.5107 43.04C66.2392 44.8129 66.6113 46.7335 66.6113 48.7871C66.6113 50.8409 66.2392 52.7621 65.5107 54.5352C64.7823 56.3081 63.7565 57.8444 62.4482 59.1445C61.14 60.4448 59.6088 61.4644 57.8545 62.2031C56.1003 62.9418 54.212 63.3262 52.2051 63.3262C50.4658 63.3261 48.8305 63.0159 47.3291 62.4102C45.8127 61.8044 44.4596 61.0216 43.2852 60.0908C42.0958 59.1452 41.1143 58.0958 40.3115 56.9434C39.5089 55.7763 38.9741 54.6385 38.6768 53.501L46.8232 52.8359C47.1503 53.4269 47.5666 53.9591 48.0869 54.4023C48.5031 54.8159 49.0683 55.1849 49.752 55.4951C50.4358 55.8054 51.269 55.9688 52.2354 55.9688C53.4097 55.9687 54.3908 55.7613 55.1787 55.3477C55.9665 54.934 56.6056 54.4612 57.0664 53.959C57.5273 53.4566 57.944 52.7766 58.3008 51.9492H49.6182V45.6553H58.3008C58.0034 44.9165 57.5872 44.2365 57.0371 43.6455C56.5614 43.1433 55.9223 42.6705 55.1494 42.2568C54.3764 41.8432 53.395 41.6368 52.2207 41.6367C51.2544 41.6367 50.436 41.8134 49.7373 42.168C49.0535 42.5226 48.4885 42.9075 48.0723 43.3359C47.5669 43.8382 47.1356 44.3993 46.8086 44.9902L38.7217 44.3105C38.9893 43.1435 39.5237 41.9614 40.3115 40.75C41.0995 39.5384 42.0958 38.4593 43.2852 37.5137C44.4745 36.5533 45.8276 35.7708 47.3291 35.165C48.8454 34.5593 50.4658 34.2491 52.2051 34.249ZM78.3262 44.7686H88.0049V34.707H95.8838V62.8828H88.0049V52.3779H78.3262V62.8828H70.4473V34.707H78.3262V44.7686ZM7.33496 50.0605L16.9307 56.5527H7.33496V60.2441H23.4561V56.9346L13.8604 50.4424H23.4561V46.751H7.33496V50.0605ZM110.037 51.2559C109.918 52.0237 109.755 52.6736 109.547 53.1758C109.339 53.6781 109.116 54.1076 108.878 54.4326C108.61 54.7871 108.328 55.0675 108.016 55.2891H117.024V42.3018H111.167L110.037 51.2559ZM7.33496 39.8682H23.4561V36.1758H10.918V29.4297H7.33496V39.8682ZM80.75 0C82.7867 1.56335e-05 84.6452 0.369526 86.3994 1.12305C88.1536 1.8618 89.6849 2.89624 90.9932 4.18164C92.3013 5.48178 93.3124 7.01815 94.0557 8.79102C94.7841 10.564 95.1562 12.4853 95.1562 14.5391C95.1562 16.5926 94.784 18.5132 94.0557 20.2861C93.3272 22.0592 92.3014 23.5963 90.9932 24.8965C89.6849 26.1967 88.1537 27.2163 86.3994 27.9551C84.6452 28.6938 82.757 29.0781 80.75 29.0781C78.7431 29.0781 76.8252 28.7085 75.0859 27.9551C73.3466 27.2163 71.8297 26.1819 70.5215 24.8965C69.2132 23.5963 68.2023 22.0592 67.459 20.2861C66.7306 18.5132 66.3584 16.5926 66.3584 14.5391C66.3584 12.4853 66.7305 10.564 67.459 8.79102C68.1874 7.01814 69.2133 5.48178 70.5215 4.18164C71.8298 2.88142 73.3465 1.86181 75.0859 1.12305C76.8253 0.384347 78.7133 0 80.75 0ZM53.5283 0.443359C55.0001 0.443359 56.3086 0.635375 57.4385 1.01953C58.5831 1.40367 59.5344 1.93574 60.3223 2.60059C61.0952 3.26536 61.7048 4.04812 62.1211 4.94922C62.5374 5.85051 62.7461 6.79692 62.7461 7.81641C62.746 8.83568 62.538 9.75172 62.1367 10.4756C61.7353 11.1995 61.2892 11.8054 60.8135 12.293C60.2783 12.8249 59.6384 13.2831 58.9248 13.6377C59.8317 13.9923 60.65 14.4947 61.4082 15.1152C62.0027 15.647 62.5675 16.356 63.1025 17.2422C63.6229 18.1287 63.8906 19.2375 63.8906 20.582C63.8906 21.7195 63.6674 22.7683 63.2363 23.7285C62.8052 24.7037 62.181 25.5464 61.3633 26.2852C60.5605 27.0091 59.5641 27.5852 58.3896 28.0137C57.2153 28.4273 55.8923 28.6347 54.4355 28.6348H40.4756V0.443359H53.5283ZM132.962 12.3818L140.173 0.443359H148.944L139.949 14.3174L149.851 28.6348H140.842L132.962 16.3262V28.6348H125.083V0.443359H132.962V12.3818ZM110.915 0.443359C112.476 0.443376 113.903 0.694083 115.211 1.19629C116.519 1.69865 117.635 2.40841 118.571 3.29492C119.508 4.19619 120.221 5.24537 120.727 6.47168C121.232 7.69799 121.485 9.04231 121.485 10.4902C121.485 11.9381 121.232 13.2973 120.727 14.5088C120.221 15.7351 119.493 16.7843 118.571 17.6855C117.635 18.5868 116.519 19.2818 115.211 19.7842C113.903 20.2864 112.476 20.5371 110.915 20.5371H106.871V28.5898H98.9922V0.443359H110.915ZM7.33496 16.9443V20.7627L23.4561 26.4912V22.6719L20.3848 21.6533V16.0527L23.4561 15.0342V11.2158L7.33496 16.9443ZM48.3545 22.5908H52.6367C53.5433 22.5908 54.2863 22.2957 54.8809 21.7197C55.4755 21.1435 55.788 20.4637 55.7881 19.6807C55.7881 18.8976 55.4904 18.2326 54.8809 17.6416C54.2863 17.0656 53.5285 16.7696 52.6367 16.7695H48.3545V22.5908ZM80.75 7.60938C79.8433 7.60938 78.9958 7.78627 78.208 8.12598C77.4053 8.46577 76.7214 8.93912 76.1416 9.55957C75.5619 10.1653 75.0861 10.904 74.7441 11.7461C74.4022 12.6031 74.2236 13.5343 74.2236 14.5391C74.2237 15.5584 74.4023 16.489 74.7441 17.3311C75.0861 18.188 75.5618 18.9128 76.1416 19.5186C76.7213 20.1241 77.4203 20.6114 78.208 20.9512C78.9959 21.2909 79.8432 21.4688 80.75 21.4688C81.6568 21.4687 82.5041 21.291 83.292 20.9512C84.0798 20.6114 84.7787 20.1389 85.3584 19.5186C85.9382 18.9128 86.4139 18.1732 86.7559 17.3311C87.0977 16.4742 87.2763 15.5436 87.2764 14.5391C87.2764 13.5343 87.0978 12.5883 86.7559 11.7461C86.4139 10.8892 85.9381 10.1653 85.3584 9.55957C84.7786 8.95383 84.0799 8.46579 83.292 8.12598C82.4893 7.78623 81.6567 7.60939 80.75 7.60938ZM17.1865 20.6357L11.8135 18.8535L17.1865 17.0713V20.6357ZM106.871 13.416H110.246C111.153 13.416 111.897 13.1201 112.491 12.5439C113.086 11.9678 113.397 11.2878 113.397 10.5049C113.397 9.72192 113.101 9.05676 112.491 8.46582C111.897 7.88963 111.138 7.59477 110.246 7.59473H106.871V13.416ZM48.3545 11.4062H51.9521C52.7252 11.4062 53.3803 11.1701 53.8857 10.6973C54.391 10.2246 54.6435 9.6335 54.6436 8.9541C54.6436 8.2745 54.3911 7.68275 53.8857 7.20996C53.3803 6.73715 52.7252 6.50098 51.9521 6.50098H48.3545V11.4062Z" fill="#6D6D6D"/>
</svg>
