<svg width="182" height="98" viewBox="0 0 182 98" fill="none" xmlns="http://www.w3.org/2000/svg">
<path d="M59.7947 13.6947C60.7054 14.0508 61.5265 14.5553 62.2879 15.1785C62.885 15.7126 63.4524 16.4248 63.9898 17.315C64.5123 18.2052 64.7811 19.318 64.7811 20.6682C64.7811 21.8107 64.5571 22.8641 64.1242 23.8286C63.6912 24.8078 63.0642 25.6535 62.2431 26.3954C61.4369 27.1224 60.4367 27.7011 59.2573 28.1314C58.0778 28.5468 56.7492 28.7545 55.2861 28.7545H41.2676V0.445068H54.3754C55.8534 0.445068 57.1672 0.637953 58.3018 1.02372C59.4513 1.40949 60.4068 1.94363 61.1981 2.61131C61.9744 3.27898 62.5865 4.06536 63.0045 4.97043C63.4225 5.8755 63.6315 6.82508 63.6315 7.84885C63.6315 8.87262 63.4225 9.79253 63.0194 10.5196C62.6163 11.2466 62.1684 11.8549 61.6907 12.3445C61.1533 12.8787 60.5113 13.3386 59.7947 13.6947ZM49.1801 11.4543H52.7929C53.5692 11.4543 54.2261 11.2169 54.7337 10.7421C55.2413 10.2673 55.4951 9.67383 55.4951 8.99132C55.4951 8.30881 55.2413 7.71532 54.7337 7.24053C54.2261 6.76573 53.5692 6.52834 52.7929 6.52834H49.1801V11.4691V11.4543ZM53.4797 22.6861C54.3903 22.6861 55.1368 22.3894 55.734 21.8107C56.3311 21.232 56.6446 20.5495 56.6446 19.7632C56.6446 18.9768 56.3461 18.3091 55.734 17.7156C55.1368 17.137 54.3754 16.8402 53.4797 16.8402H49.1801V22.6861H53.4797Z" fill="#8C8C8C"/>
<path d="M96.1774 14.5998C96.1774 16.6622 95.8042 18.5911 95.0726 20.3715C94.3411 22.152 93.311 23.6951 91.9972 25.0008C90.6834 26.3064 89.1457 27.3302 87.3841 28.0721C85.6224 28.8139 83.7264 29.1997 81.711 29.1997C79.6955 29.1997 77.7697 28.8288 76.023 28.0721C74.2762 27.3302 72.7535 26.2916 71.4397 25.0008C70.1259 23.6951 69.1107 22.152 68.3643 20.3715C67.6328 18.5911 67.2595 16.6622 67.2595 14.5998C67.2595 12.5375 67.6328 10.6086 68.3643 8.82816C69.0958 7.04769 70.1259 5.50462 71.4397 4.19894C72.7535 2.89326 74.2762 1.86949 76.023 1.12763C77.7697 0.385768 79.6657 0 81.711 0C83.7563 0 85.6224 0.370931 87.3841 1.12763C89.1457 1.86949 90.6834 2.9081 91.9972 4.19894C93.311 5.50462 94.3262 7.04769 95.0726 8.82816C95.8042 10.6086 96.1774 12.5375 96.1774 14.5998ZM75.1571 14.5998C75.1571 15.6236 75.3362 16.5584 75.6796 17.4041C76.023 18.2646 76.5007 18.9917 77.0829 19.6C77.6652 20.2083 78.3668 20.698 79.1581 21.0392C79.9493 21.3805 80.8003 21.5585 81.711 21.5585C82.6217 21.5585 83.4726 21.3805 84.2639 21.0392C85.0551 20.698 85.7568 20.2232 86.339 19.6C86.9213 18.9917 87.399 18.2498 87.7424 17.4041C88.0858 16.5435 88.2649 15.6088 88.2649 14.5998C88.2649 13.5909 88.0858 12.6413 87.7424 11.7956C87.399 10.935 86.9213 10.208 86.339 9.5997C85.7568 8.99137 85.0551 8.50174 84.2639 8.16048C83.4577 7.81923 82.6217 7.64118 81.711 7.64118C80.8003 7.64118 79.9493 7.81923 79.1581 8.16048C78.3519 8.50174 77.6652 8.97653 77.0829 9.5997C76.5007 10.208 76.023 10.9499 75.6796 11.7956C75.3362 12.6562 75.1571 13.5909 75.1571 14.5998Z" fill="#8C8C8C"/>
<path d="M112.003 0.445068C113.57 0.445068 115.003 0.697301 116.317 1.20177C117.631 1.70623 118.751 2.41842 119.691 3.30866C120.632 4.21373 121.348 5.26717 121.856 6.49866C122.363 7.73015 122.617 9.08034 122.617 10.5344C122.617 11.9884 122.363 13.3535 121.856 14.5701C121.348 15.8016 120.617 16.8551 119.691 17.7601C118.751 18.6652 117.631 19.3626 116.317 19.867C115.003 20.3715 113.57 20.6237 112.003 20.6237H107.942V28.71H100.029V0.445068H112.003ZM111.331 13.4722C112.242 13.4722 112.988 13.1754 113.585 12.5968C114.182 12.0181 114.496 11.3356 114.496 10.5492C114.496 9.76286 114.197 9.09518 113.585 8.50169C112.988 7.92304 112.227 7.62629 111.331 7.62629H107.942V13.4722H111.331Z" fill="#8C8C8C"/>
<path d="M142.055 28.7545L134.142 16.3951V28.7545H126.23V0.445068H134.142V12.4336L141.383 0.445068H150.191L141.159 14.3772L151.102 28.7545H142.07H142.055Z" fill="#8C8C8C"/>
<path d="M50.4491 45.8471H59.1677C58.8691 45.1052 58.4511 44.4227 57.8987 43.8292C57.421 43.3247 56.779 42.8499 56.0027 42.4345C55.2264 42.019 54.2411 41.8113 53.0617 41.8113C52.0913 41.8113 51.2702 41.9894 50.5685 42.3455C49.8818 42.7016 49.3144 43.0873 48.8964 43.5176C48.3888 44.0221 47.9559 44.5859 47.6275 45.1794L39.506 44.4969C39.7747 43.3247 40.3121 42.1377 41.1034 40.9211C41.8946 39.7044 42.8949 38.6213 44.0892 37.6717C45.2836 36.7073 46.6421 35.9209 48.15 35.3126C49.6728 34.7043 51.3 34.3927 53.0467 34.3927C55.0622 34.3927 56.9582 34.7636 58.7198 35.5203C60.4815 36.2622 62.0192 37.3008 63.333 38.5916C64.6467 39.8973 65.6619 41.4404 66.4084 43.2209C67.1399 45.0013 67.5131 46.9302 67.5131 48.9926C67.5131 51.0549 67.1399 52.9838 66.4084 54.7642C65.6768 56.5447 64.6467 58.0878 63.333 59.3935C62.0192 60.6991 60.4815 61.7229 58.7198 62.4648C56.9582 63.2066 55.0622 63.5924 53.0467 63.5924C51.3 63.5924 49.6578 63.2808 48.15 62.6725C46.6272 62.0642 45.2686 61.2778 44.0892 60.343C42.8949 59.3935 41.9096 58.34 41.1034 57.1827C40.2972 56.0106 39.7598 54.8681 39.4612 53.7256L47.6424 53.058C47.9708 53.6514 48.3888 54.1856 48.9114 54.6307C49.3294 55.0461 49.8967 55.4171 50.5834 55.7287C51.2702 56.0402 52.1062 56.2035 53.0766 56.2035C54.256 56.2035 55.2413 55.9957 56.0326 55.5803C56.8238 55.1648 57.4658 54.6901 57.9286 54.1856C58.3914 53.6811 58.8094 52.9986 59.1677 52.1677H50.4491V45.8767V45.8471Z" fill="#EF384C"/>
<path d="M96.9088 34.8527V63.1473H88.9964V52.598H79.2775V63.1473H71.365V34.8527H79.2775V44.9568H88.9964V34.8527H96.9088Z" fill="#EF384C"/>
<path d="M129.215 55.5062V68.3107H121.303V63.1474H107.284V68.3107H99.3718V55.5062H101.178C101.566 55.2984 101.925 55.0165 102.268 54.6456C102.567 54.3192 102.85 53.9037 103.104 53.3844C103.358 52.88 103.552 52.2271 103.671 51.4556L105.702 34.8379H126.035V55.5062H129.2H129.215ZM118.138 42.4791H112.256L111.121 51.4704C111.002 52.242 110.837 52.8948 110.628 53.3993C110.419 53.9038 110.195 54.334 109.957 54.6604C109.688 55.0165 109.404 55.2984 109.091 55.521H118.138V42.4939V42.4791Z" fill="#EF384C"/>
<path d="M54.6001 90.3588C55.6302 90.3588 56.4811 90.1659 57.1828 89.795C57.8696 89.4241 58.4369 89.0086 58.8549 88.5635C59.3625 88.0294 59.7656 87.421 60.0343 86.7682L68.1707 87.4359C67.902 88.7267 67.3645 90.0027 66.5733 91.249C65.7671 92.5102 64.7818 93.6378 63.5874 94.6468C62.3931 95.6557 61.0346 96.4569 59.5267 97.0801C58.0039 97.6884 56.3766 98 54.6299 98C52.5846 98 50.6886 97.6291 48.9419 96.8724C47.1952 96.1305 45.6724 95.0919 44.3586 93.801C43.0449 92.4954 42.0297 90.9523 41.2832 89.1718C40.5517 87.3914 40.1785 85.4625 40.1785 83.4001C40.1785 81.3378 40.5517 79.4089 41.2832 77.6285C42.0148 75.848 43.0449 74.3049 44.3586 72.9992C45.6724 71.6936 47.1952 70.6698 48.9419 69.9279C50.6886 69.1861 52.5846 68.8003 54.6299 68.8003C56.3766 68.8003 58.0189 69.1119 59.5267 69.7202C61.0495 70.3285 62.408 71.1446 63.5874 72.1535C64.7818 73.1624 65.7671 74.2901 66.5733 75.5512C67.3645 76.8124 67.902 78.0884 68.1707 79.3644L60.0343 80.0321C59.7656 79.3792 59.3774 78.7709 58.8549 78.2368C58.4369 77.7917 57.8696 77.3762 57.1828 77.0053C56.4961 76.6344 55.6302 76.4415 54.6001 76.4415C53.6894 76.4415 52.8384 76.6195 52.0472 76.9608C51.241 77.302 50.5543 77.7768 49.972 78.4C49.3898 79.0083 48.912 79.7502 48.5687 80.5959C48.2253 81.4565 48.0462 82.3912 48.0462 83.4001C48.0462 84.4091 48.2253 85.3587 48.5687 86.2044C48.912 87.0649 49.3898 87.792 49.972 88.4003C50.5543 89.0086 51.2559 89.4982 52.0472 89.8395C52.8384 90.1808 53.6894 90.3588 54.6001 90.3588Z" fill="#8C8C8C"/>
<path d="M97.0883 69.2454V97.54H89.1758V76.8717H79.4569V97.54H71.5444V69.2454H97.0883Z" fill="#8C8C8C"/>
<path d="M129.857 83.4001C129.857 85.4625 129.484 87.3914 128.752 89.1718C128.021 90.9523 126.991 92.4954 125.677 93.801C124.363 95.1067 122.825 96.1305 121.064 96.8724C119.302 97.6142 117.406 98 115.391 98C113.375 98 111.449 97.6291 109.703 96.8724C107.956 96.1305 106.433 95.0919 105.119 93.801C103.806 92.4954 102.79 90.9523 102.044 89.1718C101.312 87.3914 100.939 85.4625 100.939 83.4001C100.939 81.3378 101.312 79.4089 102.044 77.6285C102.775 75.848 103.806 74.3049 105.119 72.9992C106.433 71.6936 107.956 70.6698 109.703 69.9279C111.449 69.1861 113.345 68.8003 115.391 68.8003C117.436 68.8003 119.302 69.1712 121.064 69.9279C122.825 70.6698 124.363 71.7084 125.677 72.9992C126.991 74.3049 128.006 75.848 128.752 77.6285C129.484 79.4089 129.857 81.3378 129.857 83.4001ZM108.837 83.4001C108.837 84.4239 109.016 85.3587 109.359 86.2044C109.703 87.0649 110.18 87.792 110.763 88.4003C111.345 89.0086 112.047 89.4982 112.838 89.8395C113.629 90.1808 114.48 90.3588 115.391 90.3588C116.301 90.3588 117.152 90.1808 117.944 89.8395C118.735 89.4982 119.436 89.0235 120.019 88.4003C120.601 87.792 121.079 87.0501 121.422 86.2044C121.765 85.3438 121.945 84.4091 121.945 83.4001C121.945 82.3912 121.765 81.4416 121.422 80.5959C121.079 79.7353 120.601 79.0083 120.019 78.4C119.436 77.7917 118.735 77.302 117.944 76.9608C117.137 76.6195 116.301 76.4415 115.391 76.4415C114.48 76.4415 113.629 76.6195 112.838 76.9608C112.032 77.302 111.345 77.7768 110.763 78.4C110.18 79.0083 109.703 79.7502 109.359 80.5959C109.016 81.4565 108.837 82.3912 108.837 83.4001Z" fill="#8C8C8C"/>
<path d="M145.682 69.2454C147.25 69.2454 148.683 69.4976 149.997 70.0021C151.311 70.5065 152.43 71.2187 153.371 72.109C154.311 73.014 155.028 74.0675 155.535 75.299C156.043 76.5305 156.297 77.8806 156.297 79.3347C156.297 80.7887 156.043 82.1538 155.535 83.3704C155.028 84.6019 154.296 85.6554 153.371 86.5604C152.43 87.4655 151.311 88.1628 149.997 88.6673C148.683 89.1718 147.25 89.424 145.682 89.424H141.621V97.5103H133.709V69.2157H145.682V69.2454ZM145.01 82.2725C145.921 82.2725 146.668 81.9757 147.265 81.3971C147.862 80.8184 148.175 80.1359 148.175 79.3495C148.175 78.5632 147.877 77.8955 147.265 77.302C146.668 76.7233 145.906 76.4266 145.01 76.4266H141.621V82.2725H145.01Z" fill="#8C8C8C"/>
<path d="M173.704 97.5401H165.792V76.8718H158.103V69.2306H181.378V76.8718H173.689V97.5401H173.704Z" fill="#8C8C8C"/>
<rect x="0.622192" width="29.9783" height="98" fill="#EE364A"/>
<path d="M17.881 17.1435L12.4849 18.9331L17.881 20.7227L17.881 17.1435ZM21.093 21.7453L24.1765 22.7679L24.1765 26.6027L7.98816 20.8505L7.98816 17.0157L24.1765 11.2635L24.1765 15.0983L21.093 16.1209L21.093 21.7453Z" fill="white"/>
<path d="M7.98816 40.0354L7.98816 29.5537L11.5856 29.5537L11.5856 36.3284L24.1765 36.3284L24.1765 40.0354L7.98816 40.0354Z" fill="white"/>
<path d="M7.98816 56.7906L17.6241 56.7906L7.98816 50.2715L7.98816 46.948L24.1765 46.948L24.1765 50.6549L14.5406 50.6549L24.1765 57.1741L24.1765 60.4976L7.98816 60.4976L7.98816 56.7906Z" fill="white"/>
<path d="M7.98816 67.3882L24.1765 67.3882L24.1765 71.0952L11.5856 71.0952L11.5856 75.4413L19.2943 76.0804C20.9045 76.2167 22.1465 76.7025 23.0202 77.5376C23.8767 78.3727 24.3049 79.4635 24.3049 80.81C24.3049 81.0145 24.2964 81.2105 24.2793 81.398C24.2793 81.5854 24.2707 81.7473 24.2536 81.8837C24.2364 82.0541 24.2107 82.2075 24.1765 82.3439L20.9645 82.3439L20.9645 81.8326C20.9645 81.2531 20.7504 80.7673 20.3221 80.3753C19.8938 79.9663 19.2943 79.7277 18.5234 79.6595L7.98816 78.7647L7.98816 67.3882Z" fill="white"/>
</svg>
