<svg width="14" height="46" viewBox="0 0 14 46" fill="none" xmlns="http://www.w3.org/2000/svg">
<rect width="14" height="46" fill="#EE364A"/>
<path d="M8.05994 8.047L5.53994 8.887L8.05994 9.727L8.05994 8.047ZM9.55994 10.207L10.9999 10.687L10.9999 12.487L3.43994 9.787L3.43994 7.987L10.9999 5.287L10.9999 7.087L9.55994 7.567L9.55994 10.207Z" fill="white"/>
<path d="M3.43994 18.7921L3.43994 13.8721L5.11994 13.8721L5.11994 17.0521L10.9999 17.0521L10.9999 18.7921L3.43994 18.7921Z" fill="white"/>
<path d="M3.43994 26.6569L7.93994 26.6569L3.43994 23.5969L3.43994 22.0368L10.9999 22.0368L10.9999 23.7768L6.49994 23.7768L10.9999 26.8369L10.9999 28.3969L3.43994 28.3969L3.43994 26.6569Z" fill="white"/>
<path d="M3.43994 31.6312L10.9999 31.6312L10.9999 33.3712L5.11994 33.3712L5.11994 35.4112L8.71994 35.7112C9.47194 35.7752 10.0519 36.0032 10.4599 36.3952C10.8599 36.7872 11.0599 37.2992 11.0599 37.9312C11.0599 38.0272 11.0559 38.1192 11.0479 38.2072C11.0479 38.2952 11.0439 38.3712 11.0359 38.4352C11.0279 38.5152 11.0159 38.5872 10.9999 38.6512L9.49994 38.6512L9.49994 38.4112C9.49994 38.1392 9.39994 37.9112 9.19994 37.7272C8.99994 37.5352 8.71994 37.4232 8.35994 37.3912L3.43994 36.9712L3.43994 31.6312Z" fill="white"/>
</svg>
