<svg width="180" height="172" viewBox="0 0 180 172" fill="none" xmlns="http://www.w3.org/2000/svg">
<path d="M178.42 156.887C177.814 157.16 177.188 157.443 176.531 157.706C173.893 158.777 170.832 159.767 167.376 160.404C166.941 160.485 166.497 160.555 166.062 160.626C165.628 160.707 165.173 160.768 164.708 160.818C162.788 161.061 160.777 161.202 158.666 161.182C158.534 161.182 158.413 161.182 158.282 161.182C158.039 161.182 157.797 161.182 157.554 161.182C151.168 160.959 144.782 159.323 139.042 156.453L137.627 144.61H127.573C127.088 148.632 126.613 152.653 126.128 156.675C121.288 158.979 114.457 161.222 106.242 161.222C105.747 161.222 105.231 161.222 104.726 161.192C98.5318 160.97 92.3274 159.413 86.7294 156.705L89.9124 126.866L92.3072 104.453C93.1763 104.645 94.0352 104.817 94.9143 104.999C95.6014 105.13 96.2784 105.262 96.9656 105.393C97.5314 105.504 98.1074 105.615 98.6834 105.716C99.3604 105.838 100.037 105.959 100.704 106.07C101.21 106.151 101.725 106.242 102.22 106.313C103.049 106.444 103.887 106.575 104.716 106.707C105.656 106.838 106.595 106.969 107.535 107.101C109.677 107.384 111.799 107.636 113.952 107.828C114.891 107.919 115.821 108.01 116.761 108.081C119.196 108.293 121.642 108.445 124.087 108.556C124.329 108.556 124.562 108.576 124.804 108.586C125.643 108.627 126.482 108.657 127.32 108.667C128.2 108.697 129.089 108.718 129.968 108.728C130.766 108.728 131.564 108.748 132.363 108.748H132.575C146.115 108.748 159.676 107.293 172.923 104.443C174.752 121.015 176.561 140.336 178.39 156.938L178.42 156.887Z" fill="#8C8C8C"/>
<path d="M172.439 99.7143C159.373 102.564 145.974 104.019 132.616 104.019H132.414C127.179 104.019 121.935 103.776 116.721 103.322C108.688 102.645 100.695 101.442 92.8129 99.7244L93.3282 94.8539C99.9368 96.3494 107.788 97.7135 116.67 98.5118C121.612 98.9463 126.876 99.2192 132.424 99.2293H132.606C136.516 99.2293 140.265 99.108 143.883 98.8655C145.681 98.7544 147.429 98.623 149.137 98.4613C150.875 98.2996 152.573 98.1178 154.23 97.9157C155.867 97.7035 157.463 97.4912 159.01 97.2588C163.698 96.5616 168.003 95.733 171.873 94.8539C172.065 96.4302 172.257 98.0571 172.439 99.7143Z" fill="#EE364A"/>
<path d="M125.481 162.051L124.936 166.669C124.643 166.82 124.309 166.972 123.956 167.134C123.784 167.214 123.602 167.295 123.41 167.376C123.218 167.457 123.026 167.548 122.834 167.629C122.632 167.71 122.44 167.8 122.228 167.881C121.591 168.144 120.904 168.417 120.166 168.68C119.813 168.801 119.449 168.922 119.065 169.064C118.681 169.185 118.287 169.306 117.883 169.427C117.579 169.518 117.266 169.609 116.953 169.69C116.852 169.72 116.741 169.751 116.64 169.771C116.377 169.842 116.094 169.912 115.821 169.983C115.427 170.074 115.043 170.175 114.629 170.256C114.174 170.347 113.719 170.448 113.244 170.529H113.224C112.749 170.62 112.264 170.701 111.779 170.771C111.779 170.771 111.759 170.771 111.749 170.771C111.254 170.852 110.749 170.913 110.243 170.973C109.203 171.085 108.111 171.175 106.98 171.216C106.434 171.236 105.878 171.246 105.312 171.246H105.282C105.07 171.246 104.868 171.246 104.655 171.246C95.8338 171.125 89.1445 168.387 85.6482 166.659L86.1939 161.606C91.9738 164.163 98.2691 165.618 104.544 165.84C105.13 165.86 105.706 165.87 106.272 165.87C113.901 165.87 120.429 164.122 125.461 162.051H125.481Z" fill="#EE364A"/>
<path d="M179.532 166.669C179.411 166.74 179.28 166.8 179.128 166.881C178.997 166.952 178.855 167.023 178.704 167.103C178.4 167.245 178.077 167.407 177.734 167.568C177.461 167.689 177.178 167.821 176.865 167.962C176.612 168.073 176.339 168.195 176.076 168.306C175.804 168.417 175.521 168.548 175.217 168.659C174.591 168.902 173.924 169.155 173.217 169.387C172.823 169.518 172.418 169.64 172.004 169.781C171.59 169.902 171.155 170.024 170.721 170.155C170.276 170.266 169.832 170.387 169.357 170.499C168.892 170.6 168.427 170.711 167.942 170.802C167.457 170.903 166.962 170.994 166.457 171.075C165.951 171.155 165.436 171.226 164.921 171.297C164.395 171.368 163.86 171.408 163.314 171.459C162.768 171.509 162.213 171.539 161.647 171.56C161.091 171.59 160.505 171.6 159.929 171.6C159.242 171.6 158.555 171.58 157.837 171.539C149.774 171.135 143.67 168.457 140.326 166.679L139.76 161.889C145.368 164.274 151.411 165.648 157.463 165.85C158.039 165.871 158.625 165.881 159.191 165.881C167.134 165.881 173.894 163.981 179.027 161.798C179.219 163.466 179.411 165.093 179.593 166.679L179.532 166.669Z" fill="#EE364A"/>
<path d="M100.402 0.0101147C99.462 3.5468 98.1584 6.61865 96.5922 9.37727L116.074 15.1168L116.094 4.24403L100.412 0L100.402 0.0101147Z" fill="#8C8C8C"/>
<path d="M49.5541 0.0101147C50.4939 3.5468 51.7974 6.61865 53.3636 9.37727L33.8816 15.1168L33.8613 4.24403L49.544 0L49.5541 0.0101147Z" fill="#8C8C8C"/>
<path d="M54.7277 31.1332L48.4425 39.5606L60.6694 39.2372L54.7176 31.1332H54.7277Z" fill="#8C8C8C"/>
<path d="M7.27527 25.9087L24.989 48.1899L30.7588 44.8148L30.6781 6.42664L7.27527 25.8986V25.9087Z" fill="#8C8C8C"/>
<path d="M-0.00012207 31.9614L17.5722 52.5146L22.1901 49.8267L4.80978 27.9598L-0.00012207 31.9614Z" fill="#EE364A"/>
<path d="M60.4872 12.8332C64.5696 16.38 69.8139 18.3302 75.22 18.3302C84.9307 18.3302 93.7219 11.3478 97.2384 1.27332C88.134 6.00237 75.6949 10.014 63.0538 6.49749C59.6586 5.56784 56.4251 4.11276 53.4644 2.18274C54.8184 6.2853 57.2335 9.96346 60.4771 12.8332H60.4872Z" fill="#8C8C8C"/>
<path d="M118.923 6.32556C119.065 17.2792 119.206 30.8803 119.338 44.9765L125.4 48.503L143.953 27.0707L118.923 6.32556Z" fill="#8C8C8C"/>
<path d="M116.296 61.0431C116.165 46.3709 116.024 31.3451 115.872 18.3806L94.8236 11.9337C89.842 17.8652 82.7787 21.5232 75.2304 21.5232C69.0462 21.5232 63.0541 19.3001 58.3857 15.238C57.2944 14.2881 56.2738 13.2372 55.3542 12.1156L33.9017 18.4412L34.1139 117.802C34.1139 118.54 34.5686 119.206 35.2659 119.479C51.5144 125.906 68.9048 128.483 86.0628 127.179L88.5385 103.999L88.6799 102.705L88.9931 99.7951L89.0437 99.31L89.5691 94.4396L90.0137 90.1955L94.1769 91.1353C101.574 92.8026 109.092 93.9848 116.65 94.672C116.539 84.0013 116.418 72.411 116.306 61.0229L116.296 61.0431ZM45.1282 38.6812L52.6764 28.546C53.1615 27.8993 53.9295 27.5052 54.748 27.5052C55.5766 27.5052 56.3344 27.9094 56.8194 28.5562L63.9636 38.2871C64.5294 39.055 64.6204 40.0857 64.2061 40.9446C63.7918 41.8035 62.9227 42.3593 61.9628 42.3896L47.2805 42.7938H47.1996C46.2195 42.7938 45.3404 42.2381 44.8857 41.369C44.4613 40.4899 44.5421 39.4491 45.1282 38.6711V38.6812ZM62.8621 48.887H46.2195C45.3404 48.887 44.6128 48.1696 44.6128 47.2804C44.6128 46.3911 45.3303 45.6838 46.2195 45.6838H62.8621C63.7412 45.6838 64.4688 46.4013 64.4688 47.2804C64.4688 48.1595 63.7513 48.887 62.8621 48.887ZM97.9966 46.7953C94.0759 46.7953 90.5594 44.4409 89.0639 40.8234C87.5583 37.2059 88.397 33.0427 91.1657 30.2841C93.9344 27.5052 98.0875 26.6867 101.705 28.1822C105.312 29.6778 107.667 33.2145 107.667 37.1149C107.667 42.4604 103.342 46.7852 97.9966 46.7953Z" fill="#8C8C8C"/>
<path d="M128.21 50.1502L132.282 52.5147L149.855 31.9615L146.419 29.1119L128.22 50.1401L128.21 50.1502Z" fill="#EE364A"/>
<path d="M104.473 37.0947C104.504 45.7242 91.5494 45.7646 91.5292 37.1351C91.4989 28.5056 104.453 28.4651 104.473 37.0947Z" fill="#8C8C8C"/>
</svg>
