<svg width="90" height="90" viewBox="0 0 90 90" fill="none" xmlns="http://www.w3.org/2000/svg">
<path d="M2.76221 87.417H86.854V61.9766H89.4302V90H0.185059V61.126H2.76221V87.417ZM3.24951 44.082H11.9927V38.0605H14.3501V51.9404H11.9927V45.71H3.24951V51.9404H0.893066V38.0605H3.24951V44.082ZM63.6646 51.9404H61.3022V39.627H52.8149V51.9404H50.4585V38.0605H63.6646V51.9404ZM79.3501 44.792L86.4819 38.0605H89.3267L81.9692 44.9385L89.8149 51.9404H86.8413L79.356 45.0615V51.9404H76.9937V38.0605H79.3501V44.792ZM38.6079 39.6211H33.5825V51.9336H31.2261V39.6211H26.2017V38.0605H38.6079V39.6211ZM89.4302 28.874H86.854V2.58301H2.76221V28.0234H0.185059V0H89.4302V28.874Z" fill="white"/>
</svg>
