<svg width="120" height="26" viewBox="0 0 120 26" fill="none" xmlns="http://www.w3.org/2000/svg">
<path d="M13.0351 0.466711C15.9711 0.130898 19.3633 0.124733 21.2812 0.483312C22.1513 0.642682 22.6489 1.00726 22.7909 1.22355C23.0215 1.58221 22.9801 2.44689 22.9032 2.86808C22.7789 3.57385 22.4531 4.0694 21.873 4.24015C21.5059 4.30258 20.8313 3.50038 20.4052 4.67277C20.3875 4.70126 20.3693 4.76967 20.3456 4.80948L20.1972 5.17667C20.0346 5.6024 19.8339 6.21367 19.6298 6.94327C18.9077 9.51008 18.0253 13.4544 17.747 15.2304C17.3267 17.8998 17.0663 20.6097 16.9775 22.3798C16.9242 23.3416 16.7346 24.3204 16.1249 24.9862C15.7757 25.3675 15.2967 25.647 14.6279 25.7665C14.3673 25.8802 13.4618 25.4761 13.1894 25.1005C12.0766 22.323 13.0892 17.2004 14.3974 11.4462C14.9714 9.06213 15.2252 7.99151 15.3495 7.46769C15.4442 7.0465 15.5273 6.70986 15.6161 6.31144C15.6518 6.14599 15.8116 5.60578 15.8945 5.1337C15.9773 4.65568 15.9715 4.24594 15.6757 4.33683C15.0068 4.54173 14.1661 4.66696 13.8642 4.73527C13.4734 4.73527 11.1943 4.74623 10.2236 5.51456C10.0046 5.6853 9.851 5.89632 9.80364 6.15812C9.63198 7.08014 9.61377 8.05906 9.45989 9.038C9.38296 9.54439 9.34224 9.93156 9.28899 10.4208C9.08182 12.3559 7.31146 19.5043 6.74309 21.1327C6.91475 21.2579 5.55375 24.9632 3.32219 23.6542C2.23911 21.7815 3.5351 17.0462 4.20989 15.1396C4.53546 12.2141 5.61316 9.0441 6.09856 6.40323L5.9677 6.30655C4.6418 6.71067 1.71827 7.71189 0.522386 7.03507C-0.0162649 6.72772 -0.206137 6.07843 0.279222 4.86613C0.877073 3.3692 2.9077 3.11834 4.20403 2.663C7.99791 1.31422 10.8569 0.722863 13.0351 0.466711ZM43.3779 6.22648C43.9994 6.22648 44.5564 6.34599 45.0595 6.59073C45.5625 6.82975 45.9531 7.12041 46.2431 7.46183C46.5329 7.79739 46.7043 8.11589 46.7636 8.4003C46.8465 8.79872 46.6751 9.06121 46.2489 9.18644C45.8168 9.30596 45.1537 9.3909 44.2421 9.43644C43.3366 9.48196 42.7152 9.5503 42.3896 9.63566C41.5254 12.3392 40.8736 14.6731 40.4238 16.6425C39.9739 18.6117 39.6246 20.4507 39.3642 22.1581C39.1038 23.8652 38.9323 24.9009 38.8613 25.2538C38.7843 25.6067 38.6186 25.7831 38.3759 25.7831L38.205 25.7734C38.0059 25.7413 37.722 25.661 37.3583 25.5331C36.8789 25.3624 36.4405 25.1403 36.038 24.8671C35.6414 24.5882 35.4107 24.3034 35.3515 23.996C35.2864 23.6772 35.357 22.9256 35.582 21.7304C35.801 20.5466 36.068 19.2606 36.3935 17.872C36.7131 16.4832 37.074 14.9918 37.4765 13.3925C37.8849 11.7988 38.1989 10.6032 38.4179 9.8007C36.5474 9.94868 35.5404 10.0224 35.3984 10.0224C34.4929 10.0222 33.907 9.34538 33.6288 7.98527C33.5341 7.52993 33.9248 7.21118 34.789 7.02335C35.6532 6.82983 37.1512 6.65945 39.2822 6.50577C39.655 6.47163 40.2113 6.4372 40.9687 6.39738C41.7142 6.35755 42.2765 6.31726 42.6376 6.28312C42.969 6.24328 43.2121 6.22648 43.3779 6.22648ZM29.3847 6.28898C30.0595 6.28898 30.5745 6.39724 30.9296 6.62491C31.2907 6.84689 31.7174 7.36488 32.2323 8.18448C32.5163 8.63949 32.6812 8.94696 32.7109 9.10636C32.7582 9.33972 32.5984 9.4589 32.2255 9.4589C32.1663 9.4589 32.0661 9.45926 31.9423 9.4423C31.8123 9.43093 31.7231 9.42571 31.6757 9.4257C30.3912 9.32894 29.6449 9.27726 29.4081 9.27726C28.5559 9.27726 27.9814 9.30531 27.6855 9.36222C27.3897 9.42484 27.1587 9.56162 26.9989 9.79484C26.8332 10.0225 26.6207 10.4668 26.3544 11.1269C25.8098 12.4417 25.3955 13.5689 25.0995 14.5194C26.1528 14.4 27.1115 14.3427 27.9814 14.3427C29.1059 14.3427 29.7098 14.5649 29.8046 15.0087C29.8164 15.0599 29.8046 15.1225 29.8046 15.2021C29.7928 15.2644 29.7813 15.3214 29.7753 15.3612C29.7635 15.5149 29.7692 15.7486 29.7929 16.0614C29.8284 16.3972 29.7928 16.6307 29.704 16.7616C29.6093 16.8869 29.3902 16.9669 29.0409 17.0068C28.6975 17.0466 28.0108 17.0748 26.9872 17.0976L24.5722 17.1542C24.2881 17.9112 24.0037 18.8679 23.7255 20.0234C23.4414 21.1787 23.3466 21.9871 23.4413 22.4482C23.4768 22.6187 23.548 22.7382 23.6425 22.8066C23.7431 22.8749 23.9451 22.9091 24.247 22.9091C25.4366 22.9091 26.3069 22.8579 26.8573 22.7441C27.4078 22.6359 27.9526 22.4937 28.4853 22.3173C29.0179 22.1352 29.4977 22.0497 29.9179 22.0497C30.2195 22.0499 30.4024 22.2493 30.4911 22.6532C30.6449 23.4155 30.6814 23.9162 30.5927 24.161C30.498 24.4058 30.2962 24.5941 29.9706 24.7079C29.284 24.9583 28.2654 25.2029 26.9159 25.4306C25.5606 25.6696 24.3649 25.7773 23.3232 25.7773C22.6425 25.7772 21.938 25.6238 21.1982 25.3222C20.4583 25.0148 19.9844 24.3661 19.7831 23.3759C19.576 22.3741 19.7541 20.7061 20.3105 18.3554C20.8728 16.0162 21.3933 14.2627 21.8906 13.1073L23.1396 10.1542C22.6661 10.1542 22.3349 9.96552 22.1396 9.59562C21.9384 9.22 21.7729 8.67945 21.6249 7.98527L21.6113 7.84952C21.6029 7.24121 22.4897 6.83302 24.2822 6.62491C26.1882 6.40294 27.8871 6.28898 29.3847 6.28898ZM53.4052 6.21476C54.7252 6.21476 55.8978 6.43096 56.9218 6.87491C57.9517 7.31885 58.7566 7.877 59.3544 8.54288L59.5595 8.81144C60.0294 9.39906 60.3293 9.98557 60.4433 10.5634C60.6209 11.4171 60.2954 12.5215 59.4667 13.8818C58.644 15.2477 57.6378 16.4602 56.4599 17.5302C55.2819 18.6002 54.3583 19.1357 53.6894 19.1357C53.1211 19.1356 52.3994 18.509 51.5234 17.2626C51.2393 18.4008 50.9959 19.5676 50.8124 20.7685C50.629 21.9749 50.4873 22.9371 50.3808 23.6542C50.2683 24.3712 50.1382 24.9066 49.9784 25.2538C49.8186 25.601 49.5637 25.7772 49.2323 25.7773C49.1199 25.7773 48.9122 25.7316 48.6103 25.6405C48.3086 25.5495 48.0182 25.4756 47.746 25.413C47.2076 25.2992 46.8166 25.1909 46.5917 25.0771C46.3553 24.9689 46.2076 24.7472 46.1366 24.4062C46.0952 24.1842 46.1067 23.8936 46.1718 23.5351C46.2428 23.1879 46.4792 22.2827 46.8818 20.8427C47.2843 19.3913 47.6758 17.9629 48.0546 16.54C48.4334 15.1228 48.9476 13.1136 49.5868 10.5185C48.8944 10.2167 48.4273 9.44174 48.1669 8.20109C48.0843 7.79714 48.3264 7.44975 48.8945 7.14249C49.4567 6.84085 50.1614 6.602 51.0077 6.45402C51.8482 6.29465 52.6476 6.21476 53.4052 6.21476ZM82.0136 6.2089C83.7478 6.20893 85.2154 6.59684 86.4111 7.36515C87.6127 8.13353 88.3353 9.12368 88.5839 10.3417C88.8088 11.4116 88.5835 12.4472 87.9267 13.4374L87.7997 13.6269C87.1505 14.5286 86.2926 15.2303 85.2216 15.7372C85.8905 16.1243 86.3996 16.5685 86.7607 17.0751C87.1217 17.5759 87.3466 18.0653 87.4413 18.5263C87.6248 19.4028 87.3882 20.4216 86.7489 21.5712C86.1097 22.7152 85.2567 23.7 84.203 24.5253C83.1436 25.3505 82.1613 25.7606 81.2558 25.7607C80.3028 25.7607 79.3256 25.2022 78.3134 24.081C78.1417 24.7184 77.9819 25.1575 77.8339 25.4023C77.686 25.641 77.4791 25.7606 77.1952 25.7607C77.0058 25.7607 76.7035 25.6178 76.2773 25.3446C75.8572 25.0715 75.4605 24.7703 75.0937 24.4403C74.727 24.1105 74.5259 23.877 74.5019 23.746C74.4072 23.2793 74.4781 22.7323 74.7089 22.1005C74.9397 21.4631 75.2298 20.7006 75.5849 19.83C75.9341 18.9478 76.3016 17.7292 76.6923 16.164C77.077 14.5989 77.4025 12.7094 77.6689 10.4843C77.0178 10.3705 76.5029 10.0795 76.1122 9.60148C75.7156 9.11768 75.4726 8.64501 75.3779 8.16691C75.2834 7.71178 75.5379 7.38134 76.1415 7.17081C76.7512 6.96025 77.6749 6.74971 78.9238 6.54484C80.2259 6.32289 81.256 6.2089 82.0136 6.2089ZM67.4159 6.2089C67.7296 6.2089 68.1443 6.39705 68.6591 6.77823C69.1741 7.15958 69.624 7.56441 70.0087 7.99698C70.1389 7.90595 70.3699 7.78047 70.6894 7.62687C71.0031 7.46181 71.2167 7.38761 71.3173 7.38761C71.4949 7.38773 71.7612 7.58696 72.1044 7.98527C72.4477 8.38367 72.7973 8.9583 73.1347 9.69816L73.2597 9.97257C73.5434 10.6509 73.7692 11.4199 73.9452 12.2714C74.4068 14.5137 74.3062 16.6876 73.6552 18.7763C73.0041 20.8708 71.9981 22.5562 70.6308 23.8368C69.2634 25.1118 67.8304 25.7548 66.3447 25.7548C65.7114 25.7547 65.025 25.5781 64.2734 25.2196C63.5216 24.8668 62.8343 24.3147 62.2187 23.5634C61.6032 22.8121 61.177 21.8844 60.9521 20.786C60.5732 18.9419 60.5799 17.1257 60.9765 15.3612C61.3672 13.597 61.977 12.0318 62.7997 10.6659C63.6225 9.30573 64.4803 8.21841 65.3622 7.41593C66.2499 6.61361 66.9365 6.20911 67.4159 6.2089ZM93.5556 6.22648C93.7154 6.22648 93.9882 6.35202 94.3788 6.60245C94.7754 6.85286 95.1421 7.1262 95.4794 7.43351C95.8168 7.74086 96.0123 7.96847 96.0419 8.12784C96.0774 8.31559 96.0602 8.56587 95.9833 8.87296C95.9005 9.1803 95.7043 9.82913 95.3847 10.8251C95.071 11.8211 94.7637 12.8515 94.4618 13.9101C94.1718 14.9744 93.8405 16.3349 93.4736 17.9911C93.7105 17.6836 94.3556 16.9209 95.4267 15.7089C96.498 14.4909 97.6696 13.1985 98.954 11.8212C100.244 10.4438 101.417 9.26567 102.488 8.2753C103.554 7.28503 104.258 6.79588 104.607 6.79581C104.957 6.79581 105.348 7.02945 105.738 7.50187C106.123 7.97391 106.348 8.37193 106.419 8.6962C106.519 9.2084 105.933 9.99417 104.655 11.0526C104.046 12.8569 103.613 14.5933 103.352 16.2724C103.092 17.9457 102.902 19.665 102.79 21.4237C102.683 23.188 102.577 24.3494 102.494 24.9071C102.405 25.4704 102.186 25.7431 101.837 25.7431C101.582 25.743 101.216 25.635 100.736 25.4189C100.257 25.2026 99.8184 24.9128 99.4159 24.5429C99.0134 24.1843 98.7654 23.7852 98.6825 23.3583C98.6175 23.0283 98.5993 22.6473 98.6288 22.2206C98.6584 21.7994 98.712 21.3775 98.7948 20.9677C98.8778 20.552 99.0615 19.7154 99.3515 18.4579L100.15 15.0946C99.4874 15.8288 98.8891 16.5057 98.3505 17.1318C97.8178 17.7635 97.2559 18.4353 96.664 19.1581C96.0721 19.8809 95.468 20.6207 94.8583 21.372C94.2546 22.129 93.8342 22.6357 93.6152 22.9032C93.4021 23.1651 93.1418 23.5295 92.8222 24.0019L92.5693 24.3271C92.3554 24.6237 92.1858 24.8341 92.0527 24.9579C91.8751 25.123 91.6559 25.2089 91.3954 25.2089C90.993 25.2089 90.4837 24.9982 89.8622 24.5771C89.2352 24.1561 88.8982 23.82 88.8505 23.581C88.7854 23.2565 88.9156 22.2602 89.2353 20.5868C89.5549 18.9135 90.3772 15.6521 91.6972 10.8085C91.709 10.7687 91.8393 10.2449 92.0878 9.2548C92.3305 8.25875 92.5738 7.50729 92.7988 6.99503C93.0295 6.48305 93.2776 6.22676 93.5556 6.22648ZM109.799 6.22062C109.953 6.22067 110.207 6.35146 110.568 6.6132C110.929 6.87497 111.272 7.17147 111.586 7.49015C111.911 7.81439 112.084 8.04182 112.107 8.17277C112.137 8.30368 112.119 8.46376 112.065 8.62882C112.012 8.79385 111.911 9.0275 111.775 9.32316C111.633 9.61335 111.473 9.9774 111.284 10.3984C111.053 10.9846 110.822 11.6505 110.609 12.4189C110.402 13.1814 110.32 13.6995 110.379 13.9784C110.468 14.411 110.692 14.6327 111.065 14.6327C111.326 14.6327 111.752 14.5817 112.338 14.4735C112.929 14.3654 113.38 14.2693 113.693 14.1669L114.646 13.8935C114.771 13.4154 115.014 12.6355 115.357 11.5712C115.695 10.5068 116.079 9.51589 116.493 8.59952C116.907 7.68898 117.275 7.22843 117.583 7.22843C117.684 7.22872 117.926 7.34827 118.316 7.59269C118.707 7.83743 119.069 8.10433 119.412 8.4003L119.649 8.61515C119.849 8.82142 119.967 9.00283 119.998 9.15226C120.015 9.24361 119.921 9.51151 119.714 9.95499C119.513 10.4046 119.317 10.8769 119.14 11.372C118.631 12.7776 118.251 13.8872 118.003 14.7011C117.754 15.5206 117.535 16.4657 117.334 17.5526C117.139 18.6397 116.913 20.1197 116.671 21.9921C116.665 22.0718 116.635 22.5217 116.582 23.3525C116.529 24.1834 116.446 24.7932 116.34 25.1689C116.227 25.5387 116.025 25.7323 115.735 25.7323C115.64 25.732 115.422 25.6232 115.079 25.413C114.742 25.1968 114.38 25.0095 114.008 24.8388C113.274 24.5144 112.859 24.1327 112.77 23.7001C112.711 23.4041 112.771 22.7611 112.954 21.7821C113.132 20.8032 113.351 19.7501 113.617 18.6288C113.878 17.5076 114.055 16.7957 114.149 16.4941C113.611 16.6705 112.835 16.8872 111.817 17.1376C110.799 17.3937 110.13 17.5243 109.81 17.5243C109.219 17.5243 108.603 17.1713 107.976 16.4599C107.348 15.7486 106.969 15.0887 106.845 14.4628C106.726 13.8823 106.851 12.9257 107.235 11.6054C107.614 10.2849 108.076 9.06111 108.615 7.92277C109.148 6.79011 109.544 6.22062 109.799 6.22062ZM69.0146 9.7382C68.5352 9.7382 67.9847 10.0853 67.3515 10.7851C66.724 11.4852 66.1439 12.4024 65.6171 13.5351C65.0963 14.679 64.7229 15.9251 64.498 17.2909C64.2731 18.6511 64.2855 19.9716 64.54 21.2294C64.6524 21.7586 64.8295 22.1859 65.078 22.4989C65.3265 22.8118 65.5574 22.9656 65.7763 22.9657C66.2913 22.9657 66.8656 22.6183 67.4989 21.9296C68.1322 21.241 68.7124 20.3307 69.2392 19.204C69.7601 18.0714 70.1451 16.8642 70.37 15.5722L70.456 15.0927C70.6036 13.9832 70.5785 12.9467 70.3818 11.9755C70.074 10.4843 69.6242 9.73822 69.0146 9.7382ZM81.8769 16.9892C81.3797 16.9892 80.8349 17.0751 80.2431 17.2401C80.0892 17.9401 79.8946 18.6232 79.6816 19.3232C79.4566 20.0175 79.1485 21.0196 78.746 22.3173C79.6871 22.3173 80.5869 22.1174 81.4511 21.6962C82.3093 21.2864 82.9786 20.7633 83.4521 20.1259C83.9314 19.4885 84.1026 18.8567 83.9784 18.2421C83.8068 17.4111 83.1081 16.9892 81.8769 16.9892ZM54.8378 9.76066C54.5478 9.76066 54.3285 9.77288 54.1864 9.78995C53.642 9.8298 53.2629 9.9032 53.038 10.0341C52.8191 10.1536 52.6533 10.3643 52.5527 10.6659C52.4461 10.9619 52.2929 11.5544 52.1034 12.4423C51.7779 13.9334 51.5645 15.0773 51.4579 15.8798C52.257 15.6521 53.1089 15.2189 54.0204 14.5985C54.92 13.9726 55.6603 13.313 56.2167 12.6073L56.4179 12.3564C56.8373 11.7701 57.0023 11.2592 56.9091 10.831C56.761 10.1196 56.0748 9.76067 54.8378 9.76066ZM83.0497 9.11808C82.1855 9.11808 81.4093 9.22079 80.7109 9.4257C81.054 9.71016 81.2619 9.9998 81.3212 10.29C81.4278 10.8079 81.2554 12.2653 80.8056 14.6386C81.6223 14.3654 82.4037 13.9845 83.1435 13.5009C83.8893 13.0171 84.476 12.504 84.9081 11.9462L85.0614 11.7421C85.3785 11.2714 85.4998 10.8435 85.4169 10.455C85.3399 10.0739 85.0975 9.75495 84.6894 9.49894C84.2751 9.24287 83.7302 9.11814 83.0497 9.11808Z" fill="white"/>
</svg>
