<svg width="180" height="40" viewBox="0 0 180 40" fill="none" xmlns="http://www.w3.org/2000/svg">
<path d="M77.9922 26.039L75.6943 39.7119C75.0305 39.6266 74.5138 39.3595 74.0996 38.8818C73.7024 38.4041 73.4753 37.8236 73.4355 37.1582C73.4355 36.9307 73.4363 36.7657 73.459 36.6406L74.9277 29.8555C74.9675 29.463 74.8429 29.1097 74.5762 28.7969C74.3095 28.507 73.9744 28.3645 73.583 28.3418C73.1916 28.3419 72.8628 28.4903 72.5508 28.7803L67.3135 35.6279C66.5929 36.5208 65.6791 36.9358 64.584 36.9131L62.8643 36.874L70.0654 27.6201C71.0187 26.4826 72.1992 25.9196 73.6064 25.9424V25.9365L77.9922 26.039ZM59.6934 36.2939C59.5288 37.2097 59.0685 37.9774 58.3252 38.6201C57.5819 39.24 56.7304 39.5527 55.7998 39.5527H47.2715C47.5382 38.7679 48.0377 38.1255 48.7412 37.625C49.4619 37.1074 50.2282 36.8574 51.0566 36.8574H55.4658C56.3735 36.8573 56.9126 36.4241 57.0771 35.5312C57.1394 35.139 57.0376 34.7636 56.7881 34.4736C56.5385 34.1836 56.209 34.0362 55.7949 34.0361H49.5469C48.7811 34.0361 48.1399 33.8086 47.6406 33.3935C47.1469 32.9556 46.8975 32.375 46.8975 31.6299C46.8975 31.5275 46.9203 31.34 46.96 31.0898L47.8281 25.9424C48.4917 26.005 49.0304 26.2777 49.4219 26.7324C49.8134 27.1874 50.001 27.7456 50.001 28.4111C50.0009 28.559 49.9781 28.7637 49.9385 29.0137C49.8307 29.6791 49.9556 30.2596 50.3301 30.7373C50.6819 31.232 51.1985 31.4824 51.8623 31.4824H55.585C56.2033 31.4823 56.7595 31.2547 57.2588 30.7998C57.7525 30.322 58.0646 29.7811 58.1894 29.1611C58.354 28.3537 58.7284 27.6487 59.3467 27.0459L59.3643 27.04C59.96 26.4429 60.6863 26.0675 61.5146 25.9424L59.6934 36.2939ZM95.8496 25.7715L87.9629 32.5117L93.5693 39.376H91.6055C90.2835 39.3759 89.2453 38.9157 88.5019 38.0058L85.5625 34.4394C85.4206 34.2517 85.2103 34.1494 84.9209 34.1494C84.382 34.1495 84.0699 34.4168 83.9678 34.957L83.7412 36.1172C83.5767 36.9476 83.2018 37.6705 82.623 38.2734C82.0443 38.8705 81.3407 39.2459 80.5351 39.3711L82.3789 29.0195C82.5208 28.1891 82.8731 27.4662 83.4746 26.8633C84.0533 26.2435 84.7569 25.8907 85.5625 25.7656L84.8193 29.9746C84.7172 30.6173 84.9836 30.9472 85.6475 30.9472C85.9198 30.9472 86.1243 30.8622 86.3115 30.6972L90.4707 27.1474C91.5885 26.2148 92.8147 25.7597 94.1367 25.7597H95.8555L95.8496 25.7715ZM110.904 25.7597C111.67 25.7598 112.289 25.9871 112.766 26.4648L112.76 26.4707C113.236 26.9485 113.486 27.5691 113.486 28.3369C113.486 28.5415 113.469 28.7294 113.446 28.8545L112.141 36.1172C111.976 37.0328 111.546 37.801 110.819 38.4209C110.093 39.0636 109.27 39.3759 108.356 39.376H101.07C100.304 39.3759 99.6858 39.1262 99.1865 38.6484C98.6928 38.1707 98.4434 37.5449 98.4434 36.7998C98.4434 36.6747 98.4662 36.4871 98.5059 36.2598L99.7705 29.0195C99.9351 28.1265 100.395 27.3585 101.139 26.7158C101.865 26.0731 102.688 25.7597 103.602 25.7597H110.904ZM148.735 25.7597C149.518 25.7598 150.12 25.9871 150.597 26.4648L150.591 26.4707C151.067 26.9485 151.317 27.5691 151.317 28.3369C151.317 28.5415 151.3 28.7294 151.277 28.8545L149.972 36.1172C149.807 37.0328 149.377 37.801 148.65 38.4209C147.93 39.0636 147.118 39.376 146.21 39.376H138.901C138.158 39.376 137.517 39.1262 137.018 38.6484C136.524 38.1707 136.274 37.5449 136.274 36.7998C136.274 36.6747 136.297 36.4871 136.337 36.2598L137.619 29.0195C137.784 28.1266 138.221 27.3585 138.964 26.7158C139.69 26.0731 140.519 25.7597 141.427 25.7597H148.735ZM42.21 25.7597C42.9759 25.7597 43.5944 25.9875 44.0937 26.4424C44.5703 26.92 44.8202 27.5172 44.8203 28.3076C44.8203 28.427 44.7975 28.6151 44.7578 28.8652L42.8516 39.3652C42.1933 39.2799 41.6535 39.0119 41.2393 38.5342C40.8253 38.0792 40.6387 37.4992 40.6387 36.834C40.6387 36.6918 40.638 36.5038 40.6777 36.2764L41.6484 30.8222C41.7733 30.134 41.6479 29.5764 41.2734 29.0986C40.8989 28.621 40.3825 28.3935 39.7187 28.3935H36.0137C35.3952 28.3935 34.8392 28.5984 34.3398 29.0137C33.8462 29.4516 33.5338 29.9694 33.4316 30.5722L32.4619 36.1289C32.3144 36.9422 31.9227 37.6476 31.3213 38.2676C30.7028 38.8648 29.9984 39.2401 29.1699 39.3652L31.0771 29.0361C31.2417 28.1033 31.6956 27.3351 32.4219 26.6924C33.1651 26.0726 33.9935 25.7598 34.9238 25.7597H42.21ZM129.777 25.3623C130.521 25.3623 131.145 25.6122 131.661 26.0898V26.084C132.183 26.5617 132.45 27.1651 132.45 27.9101C132.45 28.0352 132.427 28.2003 132.388 28.4277L131.082 35.7305C130.917 36.6461 130.458 37.4142 129.715 38.0342C128.971 38.6598 128.12 38.9902 127.189 38.9902H116.862L119.285 25.3623H129.777ZM104.69 28.4619C104.072 28.4619 103.516 28.6895 103.017 29.1445C102.517 29.5824 102.228 30.1224 102.126 30.7422L101.484 34.1836C101.36 34.8433 101.485 35.4233 101.859 35.9238C102.234 36.4186 102.75 36.6689 103.414 36.6689H107.119C107.738 36.6689 108.294 36.4413 108.793 35.9863C109.292 35.5313 109.581 34.991 109.684 34.3711V34.3769L110.303 30.9131C110.428 30.2704 110.302 29.6899 109.928 29.1894C109.553 28.7119 109.059 28.4619 108.396 28.4619H104.69ZM142.516 28.4619C141.897 28.462 141.341 28.6896 140.842 29.1445C140.343 29.5824 140.053 30.1224 139.951 30.7422L139.31 34.1836C139.185 34.8433 139.31 35.4233 139.685 35.9238C140.059 36.4186 140.575 36.6689 141.239 36.6689H144.944C145.563 36.6689 146.119 36.4413 146.618 35.9863C147.118 35.5313 147.43 34.991 147.532 34.3711L148.134 30.9072L148.128 30.9131C148.253 30.2704 148.128 29.69 147.776 29.1894C147.402 28.7118 146.885 28.462 146.222 28.4619H142.516ZM121.827 33.4326C120.92 33.4327 120.38 33.8652 120.216 34.7578C120.153 35.1729 120.255 35.5261 120.505 35.8389C120.754 36.1288 121.084 36.2773 121.498 36.2773H126.878C127.791 36.2772 128.325 35.8162 128.473 34.9062C128.495 34.7586 128.495 34.6335 128.495 34.5312C128.495 33.8089 128.058 33.4326 127.189 33.4326H121.827ZM121.453 28.081L121.141 29.5771C121.141 30.4641 121.578 30.9023 122.446 30.9023H127.809C128.716 30.9022 129.255 30.4698 129.42 29.5771C129.482 29.1847 129.403 28.8314 129.153 28.5185C128.904 28.2285 128.574 28.081 128.16 28.081H121.453ZM94.5781 18.4404C132.528 18.0536 173.463 21.6367 176.267 21.9267C179.064 22.2168 190.435 22.9908 151.89 21.4892C113.066 19.9763 88.3022 19.703 64.6514 20.9599C40.9955 22.2169 17.8277 23.7353 10.9668 24.3496C-16.2165 26.7626 15.6823 22.8166 15.7949 22.8027L15.79 22.7969C15.9548 22.7809 56.7104 18.8321 94.5781 18.4404ZM110.812 3.89061C127.019 0.620159 148.462 -2.52461 144.898 4.55662C141.329 11.6434 129.226 18.3545 133.629 14.2197C135.757 12.2234 137.124 11.4441 140.035 8.53221C143.479 5.08544 146.306 0.216858 125.64 3.29393C104.974 6.371 52.2129 17.4785 52.2129 17.4785C52.2345 17.4501 56.9611 11.2338 58.8975 8.50975C60.8381 5.77394 62.6539 4.13521 56.1113 5.47752C49.5688 6.81981 45.2451 7.2241 42.9072 7.53123C40.5694 7.83267 45.3984 6.67186 45.3984 6.67186C45.4494 6.65906 53.632 4.60563 57.207 3.87987C60.7933 3.14614 68.1468 1.85496 64.3623 5.6826C60.584 9.50387 57.2128 14.2094 57.2012 14.2256C57.2923 14.2084 92.021 7.67936 110.812 3.89061ZM45.6191 11.4726C45.6191 11.4726 48.0531 12.2236 45.1592 12.2861C42.2648 12.3488 33.482 13.0766 34.8437 12.6387C36.2057 12.2007 40.7337 11.7001 45.6191 11.4726Z" fill="white"/>
</svg>
