<svg width="33" height="31" viewBox="0 0 33 31" fill="none" xmlns="http://www.w3.org/2000/svg">
<rect width="33" height="31" fill="#F5F5F5"/>
<g clip-path="url(#clip0_0_1)">
<rect width="1440" height="4400" transform="translate(-346 -1113)" fill="#1C1C1C"/>
<rect x="-205" y="-313" width="373" height="373" rx="12" fill="#535353"/>
<path d="M24.1966 20.008L26.0761 31L16.2119 25.8138L6.34073 31L8.2203 20.008L0.235657 12.2253L11.2763 10.6242L16.2119 0.620728L21.1405 10.6242L32.1812 12.2253L24.1966 20.008Z" fill="#EE364A"/>
<path d="M-12.98 8.53999C-13.72 11.2 -14.12 14 -14.12 16.89C-14.12 17.06 -14.12 17.24 -14.12 17.41H-59.6V15.74C-59.6 11.76 -56.38 8.53999 -52.42 8.53999H-12.98ZM-0.599998 -29.73C2.11 -29.73 4.31 -27.53 4.31 -24.81V-10.53C-2.79 -7.49 -8.52 -1.87001 -11.7 5.14999H-44.97C-47.68 5.14999 -49.88 2.95 -49.88 0.229996V-24.81C-49.88 -27.53 -47.68 -29.73 -44.97 -29.73H-0.589996H-0.599998ZM5.79 -139C7.1 -139 8.17 -137.93 8.17 -136.62V-134.24H20.06C21.38 -134.24 22.44 -133.16 22.44 -131.86V-107.99C22.41 -95.77 16.18 -84.39 5.9 -77.81V-77.75C6.3 -71.63 11.59 -67.01 17.68 -67.42C19 -67.42 20.06 -66.34 20.06 -65.04C20.06 -63.74 19.01 -62.66 17.68 -62.66C10.11 -62.2 3.33 -67.32 1.66 -74.74C-1.53 -70.59 -5.71 -67.31 -10.5 -65.21C-9.39 -64.07 -8.7 -62.59 -8.53 -61.01C-8.11 -57.12 -10.93 -53.6 -14.83 -53.19L-9.09 -34.02H-36.43L-30.69 -53.19C-32.27 -53.36 -33.75 -54.05 -34.88 -55.15C-37.69 -57.89 -37.77 -62.4 -35.04 -65.21C-39.83 -67.31 -44.02 -70.59 -47.2 -74.74C-48.87 -67.32 -55.65 -62.21 -63.22 -62.66C-64.53 -62.66 -65.6 -63.72 -65.6 -65.04C-65.6 -66.36 -64.53 -67.42 -63.22 -67.42C-57.12 -67.04 -51.86 -71.7 -51.44 -77.81C-61.75 -84.38 -67.96 -95.75 -68 -107.98V-131.85C-68 -133.16 -66.93 -134.23 -65.62 -134.23H-53.71V-136.61C-53.71 -137.92 -52.66 -138.99 -51.33 -138.99H5.79V-139ZM-63.25 -107.97C-63.23 -98.86 -59.22 -90.22 -52.28 -84.31C-53.24 -87.34 -53.73 -90.49 -53.73 -93.66V-129.46H-63.25V-107.96V-107.97ZM8.16 -93.67V-93.09C8.1 -90.12 7.62 -87.17 6.71 -84.33C13.64 -90.22 17.66 -98.88 17.67 -107.99V-129.46H8.16V-93.66V-93.67Z" fill="#8C8C8C"/>
</g>
<defs>
<clipPath id="clip0_0_1">
<rect width="1440" height="4400" fill="white" transform="translate(-346 -1113)"/>
</clipPath>
</defs>
</svg>
