<svg width="156" height="154" viewBox="0 0 156 154" fill="none" xmlns="http://www.w3.org/2000/svg">
<path d="M18.173 70.6877L29.3333 63.9677V9.97925L-0.00012207 39.8803L18.173 70.6877Z" fill="#EE364A"/>
<path d="M126.059 10.4827V63.7113L136.825 70.6876L155.639 40.1365L126.059 10.4827Z" fill="#EE364A"/>
<path d="M102.786 2.0874L98.6657 0.823967L95.9558 0L94.5459 1.00705L82.406 9.64047L78.2861 12.5701L77.7918 12.918L74.1663 10.1898L62.5757 1.45568L60.644 0L58.4559 0.576785L54.336 1.6571L35.3297 6.66502V122.607H97.0269C97.9425 117.599 99.9474 112.985 102.786 108.984V10.7025L112.014 13.5223V100.094C114.541 98.4281 117.315 97.0823 120.254 96.1393V7.42489L102.786 2.0874ZM54.336 114.367H43.5694V13.0096L54.336 10.1806V114.367ZM74.1663 114.367H62.5757V11.7645L72.8388 19.5007L74.1663 20.4986V114.367ZM94.5459 114.367H82.406V19.7478L82.5708 19.6289L94.5459 11.1145V114.367Z" fill="#8C8C8C"/>
<path d="M143.866 126.754L123.935 153.698C123.752 153.936 123.441 154.046 123.148 153.982C122.726 153.9 122.461 153.488 122.543 153.057L127.341 133.2C127.341 133.145 127.359 133.081 127.359 133.026C127.359 132.595 127.011 132.238 126.581 132.238H118.616C118.451 132.238 118.286 132.202 118.149 132.11C117.783 131.863 117.691 131.378 117.929 131.021L137.869 104.104C138.052 103.866 138.354 103.756 138.647 103.811C139.069 103.903 139.343 104.315 139.252 104.736L134.518 124.575C134.509 124.639 134.5 124.694 134.5 124.758C134.5 125.189 134.848 125.537 135.278 125.537H143.243C143.39 125.546 143.536 125.592 143.655 125.674C144.012 125.912 144.113 126.397 143.866 126.754Z" fill="#EE364A"/>
<path d="M143.866 126.754L123.935 153.698C123.752 153.936 123.441 154.046 123.148 153.982C122.726 153.9 122.461 153.488 122.543 153.057L127.341 133.2C127.341 133.145 127.359 133.081 127.359 133.026C127.359 132.595 127.011 132.238 126.581 132.238H118.616C118.451 132.238 118.286 132.202 118.149 132.11C117.783 131.863 117.691 131.378 117.929 131.021L137.869 104.104C138.052 103.866 138.354 103.756 138.647 103.811C139.069 103.903 139.343 104.315 139.252 104.736L134.518 124.575C134.509 124.639 134.5 124.694 134.5 124.758C134.5 125.189 134.848 125.537 135.278 125.537H143.243C143.39 125.546 143.536 125.592 143.655 125.674C144.012 125.912 144.113 126.397 143.866 126.754Z" fill="#EE364A"/>
</svg>
