<svg width="34" height="35" viewBox="0 0 34 35" fill="none" xmlns="http://www.w3.org/2000/svg">
<path d="M17 0.758789C7.616 0.758789 0 8.37479 0 17.7588C0 27.1428 7.616 34.7588 17 34.7588C26.384 34.7588 34 27.1428 34 17.7588C34 8.37479 26.384 0.758789 17 0.758789ZM24.888 12.3188C24.633 15.0048 23.528 21.5328 22.967 24.5418C22.729 25.8168 22.253 26.2418 21.811 26.2928C20.825 26.3778 20.077 25.6468 19.125 25.0178C17.629 24.0318 16.779 23.4198 15.334 22.4678C13.651 21.3628 14.739 20.7508 15.708 19.7648C15.963 19.5098 20.315 15.5488 20.4 15.1918C20.4118 15.1377 20.4102 15.0816 20.3954 15.0283C20.3806 14.9749 20.353 14.926 20.315 14.8858C20.213 14.8008 20.077 14.8348 19.958 14.8518C19.805 14.8858 17.425 16.4668 12.784 19.5948C12.104 20.0538 11.492 20.2918 10.948 20.2748C10.336 20.2578 9.18 19.9348 8.313 19.6458C7.242 19.3058 6.409 19.1188 6.477 18.5238C6.511 18.2178 6.936 17.9118 7.735 17.5888C12.699 15.4298 15.997 14.0018 17.646 13.3218C22.372 11.3498 23.341 11.0098 23.987 11.0098C24.123 11.0098 24.446 11.0438 24.65 11.2138C24.82 11.3498 24.871 11.5368 24.888 11.6728C24.871 11.7748 24.905 12.0808 24.888 12.3188Z" fill="#EE364A"/>
</svg>
