<svg width="105" height="125" viewBox="0 0 105 125" fill="none" xmlns="http://www.w3.org/2000/svg">
<path d="M50.8466 73.8799C50.7222 73.7822 50.6067 73.6933 50.5089 73.5778C50.4112 73.4711 50.3401 73.3467 50.269 73.2312C50.1979 73.1068 50.1357 72.9913 50.0824 72.858C50.0291 72.7069 50.0113 72.5647 49.9935 72.4048C49.9847 72.3159 49.9402 72.236 49.9402 72.1382V33.4033C40.903 33.9187 32.701 37.5176 26.3563 43.187L27.8403 44.671C28.7022 45.533 28.7022 46.937 27.8403 47.8078C27.4049 48.2432 26.845 48.4565 26.2674 48.4565C25.6898 48.4565 25.13 48.2432 24.6946 47.8078L23.2106 46.3238C17.5412 52.6774 13.9423 60.8794 13.4269 69.9078H15.5329C16.7592 69.9078 17.7544 70.903 17.7544 72.1293C17.7544 73.3556 16.7592 74.3508 15.5329 74.3508H13.4269C13.9423 83.3881 17.5412 91.5901 23.2106 97.9348L24.6946 96.4508C25.5565 95.5889 26.9605 95.5889 27.8314 96.4508C28.6933 97.3128 28.6933 98.7168 27.8314 99.5876L26.3474 101.072C32.701 106.741 40.903 110.34 49.9313 110.855V108.749C49.9313 107.523 50.9266 106.528 52.1529 106.528C53.3792 106.528 54.3744 107.523 54.3744 108.749V110.855C67.0017 110.136 78.0295 103.391 84.5964 93.4206L51.0421 74.0487C50.9621 73.9954 50.9088 73.9243 50.8377 73.8621L50.8466 73.8799Z" fill="#6D6D6D"/>
<path d="M54.3832 33.4122V70.8586L86.8178 89.5818C89.4747 84.33 91.0032 78.4119 91.0032 72.1382C91.0032 51.4689 74.7592 34.5674 54.3832 33.4033V33.4122Z" fill="#6D6D6D"/>
<path d="M94.1047 41.1786L97.677 37.6153C98.5123 36.7799 98.9744 35.6603 98.9744 34.4784C98.9744 33.2966 98.5123 32.1769 97.677 31.3416L92.9673 26.6319C91.2345 24.8991 88.4176 24.8991 86.6936 26.6319L83.1214 30.1953C76.4301 25.2457 68.5214 21.8512 59.9285 20.5627V15.542H61.0392C63.4829 15.542 65.4823 13.5515 65.4823 11.0989V4.44309C65.4823 1.99939 63.4918 0 61.0392 0H43.2846C40.8409 0 38.8415 1.99051 38.8415 4.44309V11.0989C38.8415 13.5426 40.8321 15.542 43.2846 15.542H44.3954V20.5627C35.8025 21.8512 27.8938 25.2457 21.2025 30.1953L17.6391 26.6319C15.9063 24.8991 13.0894 24.8991 11.3654 26.6319L6.65577 31.3416C5.82047 32.1769 5.35837 33.2966 5.35837 34.4784C5.35837 35.6603 5.82047 36.7799 6.65577 37.6153L10.2191 41.1786C3.80329 49.8427 0 60.5594 0 72.1381C0 100.894 23.3973 124.3 52.1619 124.3C80.9265 124.3 104.324 100.903 104.324 72.1381C104.324 60.5505 100.521 49.8427 94.1047 41.1786ZM89.6439 93.776C89.5639 93.9093 89.475 94.0159 89.3684 94.1225C81.824 106.839 67.9882 115.414 52.1619 115.414C40.2722 115.414 29.4933 110.589 21.6645 102.804C21.629 102.778 21.5846 102.769 21.5579 102.733C21.5312 102.698 21.5135 102.662 21.4868 102.627C13.7025 94.7978 8.87732 84.0189 8.87732 72.1292C8.87732 60.2395 13.7025 49.4605 21.4868 41.6318C21.5135 41.5963 21.5224 41.5518 21.5579 41.5252C21.5934 41.4896 21.6379 41.4807 21.6645 41.4541C29.4933 33.6698 40.2722 28.8446 52.1619 28.8446C76.0302 28.8446 95.4466 48.2609 95.4466 72.1292C95.4466 79.9224 93.3405 87.2269 89.7239 93.5538C89.6883 93.6249 89.6883 93.696 89.6528 93.7671L89.6439 93.776Z" fill="#6D6D6D"/>
</svg>
