<svg width="154" height="158" viewBox="0 0 154 158" fill="none" xmlns="http://www.w3.org/2000/svg">
<path d="M153.94 128.635C153.783 124.997 153.94 121.359 153.47 117.705C151.086 104.078 140.642 93.9484 126.702 92.051C122.264 91.4237 117.67 91.4237 113.075 90.9376C105.47 89.981 98.821 86.8292 93.9128 80.6351C89.0047 74.4568 86.4643 67.1651 84.2533 59.7322C83.1399 56.0942 80.7721 53.8675 77.2752 53.7107C73.9508 53.5539 71.2537 55.7649 70.1403 59.4186C68.8702 63.2291 67.6 67.1808 66.0319 70.9756C63.0211 78.2516 58.4266 84.4456 51.1348 88.0836C46.5403 90.2947 41.7889 91.2512 36.7239 91.408C33.5564 91.5648 30.3888 91.5648 27.2212 92.1921C12.4967 94.5756 2.03737 105.035 0.453585 119.446C-0.330469 125.781 0.139963 132.273 0.139963 138.608C0.139963 142.419 2.99392 145.257 6.94555 145.586C10.4268 145.743 13.7511 143.046 14.2216 139.408C14.3784 137.981 14.3784 136.397 14.3784 134.97V123.884C14.3784 123.256 14.5352 122.3 15.3349 122.143C15.9622 122.143 16.4483 122.927 16.6051 123.57C16.7619 124.04 16.7619 124.683 16.7619 125.154V153.348C16.7619 156.359 17.7185 157.3 20.7135 157.3H51.7621C54.9297 157.3 55.7137 156.343 55.7137 153.348V103.765C55.7137 102.024 56.1842 101.068 57.7679 100.44C63.4759 97.5864 68.2272 93.6347 72.022 88.3973C73.7626 86.0137 75.3464 83.4891 77.2438 80.7919C77.5575 81.2624 77.7143 81.576 77.8711 81.9053C82.3088 89.9811 88.4872 96.473 96.8766 100.597C98.1467 101.224 98.3035 102.181 98.3035 103.451V153.505C98.3035 156.359 99.0876 157.143 101.942 157.143H133.304C136.314 157.143 137.255 156.359 137.255 153.191V123.884C137.255 123.256 137.569 122.143 138.369 122.143C139.325 122.143 139.639 123.099 139.796 123.884C139.953 124.354 139.953 124.997 139.953 125.624V138.451C139.953 142.732 142.806 145.586 146.758 145.586C150.71 145.586 153.893 142.732 153.893 138.451C153.893 135.111 153.893 131.787 153.893 128.619L153.94 128.635Z" fill="#6D6D6D"/>
<path d="M34.9834 86.4997C44.0157 86.4997 51.4485 79.0512 51.4485 70.3325C51.4485 60.6729 44.3136 53.3812 34.6541 53.3812C24.9946 53.3812 18.189 60.8297 18.189 70.0189C18.189 79.208 25.7943 86.4997 34.9834 86.4997Z" fill="#6D6D6D"/>
<path d="M119.097 86.4997C128.443 86.4997 135.734 79.2236 135.734 70.0345C135.577 60.8454 128.458 53.5537 119.426 53.5537C110.394 53.5537 102.788 60.8297 102.631 69.862C102.631 78.8943 110.08 86.4997 119.097 86.4997Z" fill="#6D6D6D"/>
<path d="M77.1185 48.9593C78.075 48.9593 78.7022 48.332 78.7022 47.3755V40.0838C78.7022 39.1272 78.075 38.5 77.1185 38.5C76.1619 38.5 75.5347 39.1272 75.5347 40.0838V47.3598C75.5347 48.3164 76.1776 48.9436 77.1185 48.9436V48.9593Z" fill="#6D6D6D"/>
<path d="M86.4643 53.3969C86.7779 53.3969 87.2483 53.2401 87.5776 53.0833L93.5992 47.8615C94.2264 47.2343 94.3832 46.2777 93.756 45.6505C93.1287 45.0232 92.1722 44.8664 91.5449 45.4937L85.5234 50.7155C84.8962 51.3427 84.7393 52.2993 85.3666 52.9265C85.6802 53.2401 85.9938 53.3969 86.4799 53.3969H86.4643Z" fill="#6D6D6D"/>
<path d="M66.5024 52.9266C66.8161 53.2402 67.1297 53.2402 67.6158 53.2402C68.1019 53.2402 68.5724 53.0834 68.886 52.7698C69.5132 52.1425 69.3564 51.186 68.7292 50.5587L62.7076 45.3369C62.0804 44.7097 61.1238 44.8665 60.4966 45.4937C59.8694 46.121 60.0262 47.0775 60.6534 47.7048L66.5181 52.9266H66.5024Z" fill="#6D6D6D"/>
<path d="M82.967 14.96L84.4173 23.4419L76.8057 19.44L69.1887 23.4419L70.6391 14.96L64.4778 8.95453L72.9972 7.71905L76.8057 0L80.6088 7.71905L89.1282 8.95453L82.967 14.96Z" fill="#6D6D6D"/>
<path d="M82.967 14.96L84.4173 23.4419L76.8057 19.44L69.1887 23.4419L70.6391 14.96L64.4778 8.95453L72.9972 7.71905L76.8057 0L80.6088 7.71905L89.1282 8.95453L82.967 14.96Z" fill="#6D6D6D"/>
<path d="M123.28 17.8674L124.233 23.4419L119.23 20.8117L114.224 23.4419L115.178 17.8674L111.128 13.9204L116.727 13.1084L119.23 8.03516L121.73 13.1084L127.329 13.9204L123.28 17.8674Z" fill="#6D6D6D"/>
<path d="M123.28 17.8674L124.233 23.4419L119.23 20.8117L114.224 23.4419L115.178 17.8674L111.128 13.9204L116.727 13.1084L119.23 8.03516L121.73 13.1084L127.329 13.9204L123.28 17.8674Z" fill="#6D6D6D"/>
<path d="M38.4284 17.8674L39.3816 23.4419L34.379 20.8117L29.3729 23.4419L30.3261 17.8674L26.2767 13.9204L31.876 13.1084L34.379 8.03516L36.8786 13.1084L42.4778 13.9204L38.4284 17.8674Z" fill="#6D6D6D"/>
<path d="M38.4284 17.8674L39.3816 23.4419L34.379 20.8117L29.3729 23.4419L30.3261 17.8674L26.2767 13.9204L31.876 13.1084L34.379 8.03516L36.8786 13.1084L42.4778 13.9204L38.4284 17.8674Z" fill="#6D6D6D"/>
</svg>
