<svg width="34" height="35" viewBox="0 0 34 35" fill="none" xmlns="http://www.w3.org/2000/svg">
<path d="M17 0.758789C7.61104 0.758789 0 8.36983 0 17.7588C0 27.1477 7.61104 34.7588 17 34.7588C26.389 34.7588 34 27.1477 34 17.7588C34 8.36983 26.389 0.758789 17 0.758789ZM23.5379 19.9387C23.5379 19.9387 25.0414 21.4226 25.4115 22.1115C25.4221 22.1268 25.4286 22.1386 25.4309 22.1469C25.5809 22.3984 25.6181 22.5973 25.5425 22.7437C25.4185 22.9881 24.9935 23.1085 24.8483 23.1191H22.1921C22.0079 23.1191 21.6219 23.0713 21.1544 22.749C20.7949 22.4975 20.4407 22.0849 20.0954 21.683C19.5801 21.0844 19.1339 20.5673 18.6841 20.5673C18.6269 20.5671 18.5701 20.576 18.5158 20.5939C18.1758 20.7037 17.7402 21.1889 17.7402 22.4816C17.7402 22.8854 17.4215 23.1173 17.1966 23.1173H15.98C15.5656 23.1173 13.407 22.9721 11.4945 20.9551C9.15344 18.4848 7.04615 13.53 7.02844 13.484C6.89562 13.1635 7.1701 12.9917 7.46937 12.9917H10.1522C10.5099 12.9917 10.6268 13.2095 10.7082 13.4025C10.8039 13.6274 11.1545 14.5217 11.73 15.5275C12.6632 17.1673 13.2352 17.8332 13.6939 17.8332C13.7799 17.8322 13.8643 17.8103 13.94 17.7694C14.5385 17.4365 14.427 15.3026 14.4004 14.8599C14.4004 14.7767 14.3986 13.9055 14.0923 13.4875C13.8727 13.1847 13.4991 13.0696 13.2724 13.0271C13.3641 12.9005 13.485 12.7979 13.6248 12.7279C14.0356 12.5224 14.7758 12.4923 15.5107 12.4923H15.9198C16.7167 12.503 16.9221 12.5543 17.2107 12.6269C17.7951 12.7668 17.8075 13.144 17.7561 14.4349C17.7402 14.8015 17.7243 15.2159 17.7243 15.7046L17.719 16.0446C17.7013 16.7016 17.68 17.4471 18.144 17.7535C18.2038 17.7929 18.2742 17.8133 18.3458 17.8119C18.507 17.8119 18.9922 17.8119 20.3061 15.5576C20.7099 14.8313 21.0619 14.0774 21.3598 13.3016C21.3864 13.2556 21.4643 13.1139 21.5564 13.059C21.625 13.0264 21.6999 13.0088 21.7759 13.0076H24.9298C25.2733 13.0076 25.5089 13.059 25.5531 13.1918C25.631 13.4025 25.539 14.0454 24.0993 15.995L23.4565 16.8433C22.1514 18.5539 22.1514 18.6407 23.5379 19.9387Z" fill="white"/>
</svg>
