<svg width="229" height="46" viewBox="0 0 229 46" fill="none" xmlns="http://www.w3.org/2000/svg">
<path d="M60.706 36.2969C63.1742 32.5953 64.5525 28.2038 64.7142 24.1069H57.619C57.619 25.4797 57.1409 28.5775 55.6993 30.7266L48.8785 23.1509C53.3718 20.585 58.0128 17.1925 58.0128 10.9466C58.0128 4.70062 53.0835 0 46.579 0C39.1534 0 33.8373 5.06719 33.8373 11.9456C33.8373 15.755 35.9047 19.1763 38.0775 21.8644C38.0283 21.8931 37.9791 21.9434 37.9369 21.9722C36.4321 22.9641 34.9554 24.1213 33.7248 25.5156C35.6726 26.7087 36.8821 28.7572 36.8821 32.0275C36.8821 36.2178 34.8921 38.4028 31.8754 39.3372C33.9076 43.1178 38.1408 45.5112 43.7593 45.5112C48.5269 45.5112 52.6264 43.9659 55.7908 41.5438L59.3629 45.5112H69.0036L60.7131 36.2969H60.706ZM46.4103 7.00781C49.2933 7.00781 50.8052 8.76156 50.8052 11.3131C50.8052 14.5763 47.7534 16.5312 44.4976 18.285C42.817 16.3444 41.045 14.5762 41.045 12.075C41.045 9.57375 43.0561 7.00781 46.4103 7.00781ZM50.8685 36.3903C49.1035 37.5475 47.0642 38.2088 44.7859 38.2088C40.6231 38.2088 38.2955 36.2681 38.2955 33.0122C38.2955 30.7122 39.5964 29.0375 41.3473 27.6863C41.7341 27.3844 42.1279 27.1041 42.5568 26.8309L51.0513 36.2681C50.9317 36.3544 51.0021 36.3041 50.8755 36.3903H50.8685Z" fill="#EE364A"/>
<path d="M22.6004 12.9087L19.3728 0H13.684L10.4212 12.9087L7.42564 0H0.00703185L6.32164 21.4044H13.7754L16.5319 10.6159L19.3095 21.4044H26.7281L33.0427 0H25.5889L22.6074 12.9087H22.6004ZM0.00703185 30.2522C0.00703185 37.7128 10.1751 36.8503 10.1751 39.0497C10.1751 39.7541 9.63364 40.0991 7.81942 40.0991C5.5622 40.0991 2.78461 39.33 0.182828 37.5834V43.9875C2.48928 45.2956 5.33015 46 8.49448 46C13.3254 46 17.2913 44.5338 17.2913 39.0497C17.2913 31.625 7.12327 32.6313 7.12327 30.3959C7.12327 29.8209 7.57331 29.4544 8.97968 29.4544C11.3143 29.4256 13.8879 30.1875 15.9201 31.4956V25.3791C13.8598 24.2506 10.9486 23.6109 8.22024 23.6109C3.67063 23.6109 0 25.7456 0 30.2522M86.5199 21.4044H79.4318V0H86.5199V7.58281H88.081L92.272 0H99.8805L93.5026 10.6159L99.993 21.4044H92.3986L87.9404 13.7569H86.5199V21.4044ZM72.6742 13.9437C74.7767 12.88 76.2605 10.8962 76.2605 7.55406C76.2675 1.71781 71.8093 0 67.3511 0H57.6331V7.96375C57.8792 8.89812 58.0198 9.89 58.0198 10.9466C58.0198 12.0031 57.8792 12.9734 57.6331 13.8791V21.4044H64.7212V15.0794H66.1698L70.4733 21.4044H78.0817L72.6883 13.9437H72.6742ZM67.2034 9.79656H64.5384V5.75H67.2034C68.5465 5.75 69.32 6.57656 69.32 7.76969C69.32 8.96281 68.5536 9.79656 67.2034 9.79656ZM81.8578 24.1069V30.0078C81.0914 25.4941 77.0832 24.1069 73.0821 24.1069H64.7071C64.6157 26.3638 64.1516 28.6997 63.35 30.9566C63.35 30.9781 63.35 30.9925 63.35 31.0141V39.2366L68.9895 45.5041H70.4311V39.1791H71.8796L76.1831 45.5041H83.7916L78.3982 38.0434C80.5007 36.9797 81.9985 34.9959 81.9985 31.6538C81.9985 31.1722 81.9633 30.7122 81.9071 30.2809H87.3849V45.5041H94.473V30.2809H100V24.0997H81.8649L81.8578 24.1069ZM72.9274 33.8963H70.2623V29.8497H72.9274C74.2705 29.8497 75.051 30.6762 75.051 31.8766C75.051 33.0769 74.2705 33.8963 72.9274 33.8963ZM18.311 24.1069V45.5112H25.392V39.9194H27.4664C32.7966 39.9194 36.868 38.0219 36.868 32.0275C36.868 26.0331 32.7966 24.1069 27.4664 24.1069H18.311ZM30.019 32.0275C30.019 33.4938 28.9923 34.1119 27.4172 34.1119H25.2303V29.9216H27.4172C28.9923 29.9216 30.019 30.5397 30.019 32.0275Z" fill="white"/>
<path d="M122 0V46" stroke="#EE364A" stroke-width="4"/>
<path d="M171.634 6.42821C172.059 6.59536 172.442 6.83215 172.798 7.12465C173.077 7.37537 173.342 7.70967 173.593 8.12753C173.837 8.5454 173.962 9.06773 173.962 9.70149C173.962 10.2378 173.858 10.7322 173.656 11.1849C173.453 11.6446 173.161 12.0415 172.777 12.3898C172.401 12.731 171.934 13.0026 171.383 13.2046C170.832 13.3996 170.211 13.4971 169.528 13.4971H162.982V0.208984H169.103C169.793 0.208984 170.407 0.299522 170.937 0.480597C171.473 0.661672 171.92 0.912391 172.289 1.22579C172.652 1.53919 172.938 1.9083 173.133 2.33313C173.328 2.75796 173.426 3.20369 173.426 3.68423C173.426 4.16478 173.328 4.59657 173.14 4.93783C172.951 5.27908 172.742 5.56462 172.519 5.79445C172.268 6.04517 171.968 6.26107 171.634 6.42821ZM166.677 5.37658H168.364C168.726 5.37658 169.033 5.26515 169.27 5.04229C169.507 4.81943 169.626 4.54085 169.626 4.22049C169.626 3.90013 169.507 3.62155 169.27 3.39869C169.033 3.17583 168.726 3.0644 168.364 3.0644H166.677V5.38355V5.37658ZM168.685 10.6487C169.11 10.6487 169.458 10.5094 169.737 10.2378C170.016 9.96614 170.163 9.64577 170.163 9.27666C170.163 8.90755 170.023 8.59415 169.737 8.31557C169.458 8.04396 169.103 7.90467 168.685 7.90467H166.677V10.6487H168.685Z" fill="white"/>
<path d="M188.625 6.85299C188.625 7.82104 188.45 8.72642 188.109 9.56215C187.767 10.3979 187.286 11.1222 186.672 11.735C186.059 12.3479 185.341 12.8285 184.518 13.1767C183.695 13.5249 182.81 13.706 181.869 13.706C180.928 13.706 180.028 13.5319 179.212 13.1767C178.397 12.8285 177.686 12.341 177.072 11.735C176.458 11.1222 175.984 10.3979 175.636 9.56215C175.294 8.72642 175.12 7.82104 175.12 6.85299C175.12 5.88494 175.294 4.97956 175.636 4.14383C175.977 3.3081 176.458 2.5838 177.072 1.97093C177.686 1.35806 178.397 0.877517 179.212 0.529296C180.028 0.181075 180.914 0 181.869 0C182.824 0 183.695 0.174111 184.518 0.529296C185.341 0.877517 186.059 1.36503 186.672 1.97093C187.286 2.5838 187.76 3.3081 188.109 4.14383C188.45 4.97956 188.625 5.88494 188.625 6.85299ZM178.808 6.85299C178.808 7.33354 178.892 7.77229 179.052 8.16926C179.212 8.5732 179.436 8.91446 179.707 9.2C179.979 9.48554 180.307 9.71537 180.677 9.87555C181.046 10.0357 181.443 10.1193 181.869 10.1193C182.294 10.1193 182.691 10.0357 183.061 9.87555C183.43 9.71537 183.758 9.49251 184.03 9.2C184.302 8.91446 184.525 8.56624 184.685 8.16926C184.846 7.76533 184.929 7.32657 184.929 6.85299C184.929 6.37941 184.846 5.93369 184.685 5.53671C184.525 5.13278 184.302 4.79152 184.03 4.50598C183.758 4.22044 183.43 3.99061 183.061 3.83043C182.684 3.67025 182.294 3.58668 181.869 3.58668C181.443 3.58668 181.046 3.67025 180.677 3.83043C180.3 3.99061 179.979 4.21347 179.707 4.50598C179.436 4.79152 179.212 5.13974 179.052 5.53671C178.892 5.94065 178.808 6.37941 178.808 6.85299Z" fill="white"/>
<path d="M196.015 0.208984C196.747 0.208984 197.416 0.32738 198.03 0.56417C198.644 0.80096 199.166 1.13525 199.606 1.55312C200.045 1.97795 200.38 2.47242 200.617 3.05047C200.854 3.62851 200.972 4.26228 200.972 4.94479C200.972 5.6273 200.854 6.26803 200.617 6.83911C200.38 7.41716 200.038 7.91163 199.606 8.33646C199.166 8.76129 198.644 9.08862 198.03 9.32541C197.416 9.5622 196.747 9.6806 196.015 9.6806H194.119V13.4762H190.424V0.208984H196.015ZM195.701 6.32375C196.127 6.32375 196.475 6.18446 196.754 5.91284C197.033 5.64123 197.179 5.32087 197.179 4.95176C197.179 4.58264 197.04 4.26924 196.754 3.99066C196.475 3.71905 196.12 3.57976 195.701 3.57976H194.119V6.32375H195.701Z" fill="white"/>
<path d="M210.05 13.4971L206.354 7.69574V13.4971H202.659V0.208984H206.354V5.83624L209.736 0.208984H213.849L209.631 6.74857L214.275 13.4971H210.057H210.05Z" fill="white"/>
<path d="M167.269 21.5201H171.341C171.202 21.1719 171.006 20.8515 170.748 20.5729C170.525 20.3361 170.225 20.1133 169.863 19.9183C169.5 19.7233 169.04 19.6258 168.489 19.6258C168.036 19.6258 167.653 19.7093 167.325 19.8765C167.004 20.0436 166.739 20.2247 166.544 20.4267C166.307 20.6635 166.105 20.9281 165.952 21.2067L162.159 20.8863C162.284 20.3361 162.535 19.779 162.905 19.2079C163.274 18.6368 163.741 18.1284 164.299 17.6827C164.857 17.23 165.491 16.8609 166.196 16.5753C166.907 16.2898 167.667 16.1436 168.482 16.1436C169.424 16.1436 170.309 16.3177 171.132 16.6729C171.955 17.0211 172.673 17.5086 173.286 18.1145C173.9 18.7274 174.374 19.4517 174.722 20.2874C175.064 21.1231 175.238 22.0285 175.238 22.9965C175.238 23.9646 175.064 24.87 174.722 25.7057C174.381 26.5414 173.9 27.2657 173.286 27.8786C172.673 28.4915 171.955 28.972 171.132 29.3202C170.309 29.6685 169.424 29.8495 168.482 29.8495C167.667 29.8495 166.9 29.7033 166.196 29.4177C165.484 29.1322 164.85 28.7631 164.299 28.3243C163.741 27.8786 163.281 27.3841 162.905 26.8409C162.528 26.2907 162.277 25.7545 162.138 25.2182L165.959 24.9048C166.112 25.1834 166.307 25.4341 166.551 25.643C166.746 25.838 167.011 26.0121 167.332 26.1584C167.653 26.3046 168.043 26.3813 168.496 26.3813C169.047 26.3813 169.507 26.2838 169.877 26.0887C170.246 25.8937 170.546 25.6709 170.762 25.4341C170.978 25.1973 171.174 24.8769 171.341 24.4869H167.269V21.534V21.5201Z" fill="#EF384C"/>
<path d="M188.966 16.3594V29.6405H185.271V24.6888H180.732V29.6405H177.037V16.3594H180.732V21.1021H185.271V16.3594H188.966Z" fill="#EF384C"/>
<path d="M204.053 26.054V32.0643H200.358V29.6407H193.812V32.0643H190.116V26.054H190.96C191.141 25.9565 191.309 25.8242 191.469 25.65C191.608 25.4968 191.741 25.3018 191.859 25.0581C191.978 24.8213 192.069 24.5148 192.124 24.1527L193.073 16.3525H202.568V26.054H204.046H204.053ZM198.88 19.9392H196.133L195.603 24.1597C195.548 24.5218 195.471 24.8282 195.373 25.065C195.276 25.3018 195.171 25.5038 195.06 25.657C194.934 25.8242 194.802 25.9565 194.655 26.0609H198.88V19.9462V19.9392Z" fill="#EF384C"/>
<path d="M169.208 42.4132C169.689 42.4132 170.086 42.3227 170.414 42.1486C170.735 41.9745 171 41.7795 171.195 41.5706C171.432 41.3198 171.62 41.0343 171.746 40.7279L175.545 41.0413C175.42 41.6472 175.169 42.2461 174.799 42.8311C174.423 43.4231 173.963 43.9524 173.405 44.426C172.847 44.8995 172.213 45.2756 171.509 45.5681C170.797 45.8537 170.038 45.9999 169.222 45.9999C168.267 45.9999 167.381 45.8258 166.565 45.4706C165.75 45.1224 165.039 44.6349 164.425 44.029C163.812 43.4161 163.337 42.6918 162.989 41.8561C162.647 41.0204 162.473 40.115 162.473 39.1469C162.473 38.1789 162.647 37.2735 162.989 36.4378C163.33 35.602 163.812 34.8777 164.425 34.2649C165.039 33.652 165.75 33.1715 166.565 32.8232C167.381 32.475 168.267 32.2939 169.222 32.2939C170.038 32.2939 170.804 32.4402 171.509 32.7257C172.22 33.0113 172.854 33.3943 173.405 33.8679C173.963 34.3415 174.423 34.8708 174.799 35.4628C175.169 36.0547 175.42 36.6537 175.545 37.2526L171.746 37.566C171.62 37.2596 171.439 36.974 171.195 36.7233C171 36.5144 170.735 36.3194 170.414 36.1453C170.093 35.9712 169.689 35.8806 169.208 35.8806C168.783 35.8806 168.385 35.9642 168.016 36.1244C167.639 36.2846 167.318 36.5074 167.047 36.7999C166.775 37.0855 166.552 37.4337 166.391 37.8307C166.231 38.2346 166.147 38.6734 166.147 39.1469C166.147 39.6205 166.231 40.0662 166.391 40.4632C166.552 40.8671 166.775 41.2084 167.047 41.4939C167.318 41.7795 167.646 42.0093 168.016 42.1695C168.385 42.3297 168.783 42.4132 169.208 42.4132Z" fill="white"/>
<path d="M189.05 32.5029V45.7841H185.355V36.0826H180.816V45.7841H177.121V32.5029H189.05Z" fill="white"/>
<path d="M204.353 39.1469C204.353 40.115 204.179 41.0204 203.837 41.8561C203.496 42.6918 203.015 43.4161 202.401 44.029C201.787 44.6419 201.069 45.1224 200.247 45.4706C199.424 45.8189 198.538 45.9999 197.597 45.9999C196.656 45.9999 195.757 45.8258 194.941 45.4706C194.125 45.1224 193.414 44.6349 192.801 44.029C192.187 43.4161 191.713 42.6918 191.364 41.8561C191.023 41.0204 190.848 40.115 190.848 39.1469C190.848 38.1789 191.023 37.2735 191.364 36.4378C191.706 35.602 192.187 34.8777 192.801 34.2649C193.414 33.652 194.125 33.1715 194.941 32.8232C195.757 32.475 196.642 32.2939 197.597 32.2939C198.552 32.2939 199.424 32.4681 200.247 32.8232C201.069 33.1715 201.787 33.659 202.401 34.2649C203.015 34.8777 203.489 35.602 203.837 36.4378C204.179 37.2735 204.353 38.1789 204.353 39.1469ZM194.537 39.1469C194.537 39.6275 194.62 40.0662 194.781 40.4632C194.941 40.8671 195.164 41.2084 195.436 41.4939C195.708 41.7795 196.036 42.0093 196.405 42.1695C196.775 42.3297 197.172 42.4132 197.597 42.4132C198.023 42.4132 198.42 42.3297 198.789 42.1695C199.159 42.0093 199.487 41.7865 199.759 41.4939C200.031 41.2084 200.254 40.8602 200.414 40.4632C200.574 40.0593 200.658 39.6205 200.658 39.1469C200.658 38.6734 200.574 38.2276 200.414 37.8307C200.254 37.4267 200.031 37.0855 199.759 36.7999C199.487 36.5144 199.159 36.2846 198.789 36.1244C198.413 35.9642 198.023 35.8806 197.597 35.8806C197.172 35.8806 196.775 35.9642 196.405 36.1244C196.029 36.2846 195.708 36.5074 195.436 36.7999C195.164 37.0855 194.941 37.4337 194.781 37.8307C194.62 38.2346 194.537 38.6734 194.537 39.1469Z" fill="white"/>
<path d="M211.744 32.5032C212.476 32.5032 213.145 32.6216 213.758 32.8584C214.372 33.0952 214.895 33.4295 215.334 33.8473C215.773 34.2721 216.108 34.7666 216.345 35.3447C216.582 35.9227 216.701 36.5565 216.701 37.239C216.701 37.9215 216.582 38.5622 216.345 39.1333C216.108 39.7114 215.766 40.2058 215.334 40.6307C214.895 41.0555 214.372 41.3828 213.758 41.6196C213.145 41.8564 212.476 41.9748 211.744 41.9748H209.847V45.7704H206.152V32.4893H211.744V32.5032ZM211.43 38.6179C211.855 38.6179 212.204 38.4787 212.483 38.207C212.761 37.9354 212.908 37.6151 212.908 37.246C212.908 36.8768 212.768 36.5634 212.483 36.2849C212.204 36.0133 211.848 35.874 211.43 35.874H209.847V38.6179H211.43Z" fill="white"/>
<path d="M224.83 45.7842H221.135V36.0828H217.544V32.4961H228.414V36.0828H224.823V45.7842H224.83Z" fill="white"/>
<rect x="144" width="14" height="46" fill="#EE364A"/>
<path d="M152.06 8.04731L149.54 8.88731L152.06 9.72731L152.06 8.04731ZM153.56 10.2073L155 10.6873L155 12.4873L147.44 9.7873L147.44 7.9873L155 5.2873L155 7.0873L153.56 7.56731L153.56 10.2073Z" fill="white"/>
<path d="M147.44 18.7925L147.44 13.8725L149.12 13.8725L149.12 17.0525L155 17.0525L155 18.7925L147.44 18.7925Z" fill="white"/>
<path d="M147.44 26.657L151.94 26.657L147.44 23.597L147.44 22.037L155 22.037L155 23.777L150.5 23.777L155 26.837L155 28.397L147.44 28.397L147.44 26.657Z" fill="white"/>
<path d="M147.44 31.6314L155 31.6314L155 33.3714L149.12 33.3714L149.12 35.4114L152.72 35.7114C153.472 35.7754 154.052 36.0034 154.46 36.3954C154.86 36.7874 155.06 37.2994 155.06 37.9314C155.06 38.0274 155.056 38.1194 155.048 38.2074C155.048 38.2954 155.044 38.3714 155.036 38.4354C155.028 38.5154 155.016 38.5874 155 38.6514L153.5 38.6514L153.5 38.4114C153.5 38.1394 153.4 37.9114 153.2 37.7274C153 37.5354 152.72 37.4234 152.36 37.3914L147.44 36.9714L147.44 31.6314Z" fill="white"/>
</svg>
