<svg width="100" height="46" viewBox="0 0 100 46" fill="none" xmlns="http://www.w3.org/2000/svg">
<path d="M22.6004 12.9087L19.3728 0H13.684L10.4212 12.9087L7.42564 0H0.00703185L6.32164 21.4044H13.7754L16.5319 10.6159L19.3095 21.4044H26.7281L33.0427 0H25.5889L22.6074 12.9087H22.6004ZM0.00703185 30.2522C0.00703185 37.7128 10.1751 36.8503 10.1751 39.0497C10.1751 39.7541 9.63364 40.0991 7.81942 40.0991C5.5622 40.0991 2.78461 39.33 0.182828 37.5834V43.9875C2.48928 45.2956 5.33015 46 8.49448 46C13.3254 46 17.2913 44.5338 17.2913 39.0497C17.2913 31.625 7.12327 32.6313 7.12327 30.3959C7.12327 29.8209 7.57331 29.4544 8.97968 29.4544C11.3143 29.4256 13.8879 30.1875 15.9201 31.4956V25.3791C13.8598 24.2506 10.9486 23.6109 8.22024 23.6109C3.67063 23.6109 0 25.7456 0 30.2522M86.5199 21.4044H79.4318V0H86.5199V7.58281H88.081L92.272 0H99.8805L93.5026 10.6159L99.993 21.4044H92.3986L87.9404 13.7569H86.5199V21.4044ZM72.6742 13.9437C74.7767 12.88 76.2605 10.8962 76.2605 7.55406C76.2675 1.71781 71.8093 0 67.3511 0H57.6331V7.96375C57.8792 8.89812 58.0198 9.89 58.0198 10.9466C58.0198 12.0031 57.8792 12.9734 57.6331 13.8791V21.4044H64.7212V15.0794H66.1698L70.4733 21.4044H78.0817L72.6883 13.9437H72.6742ZM67.2034 9.79656H64.5384V5.75H67.2034C68.5465 5.75 69.32 6.57656 69.32 7.76969C69.32 8.96281 68.5536 9.79656 67.2034 9.79656ZM81.8578 24.1069V30.0078C81.0914 25.4941 77.0832 24.1069 73.0821 24.1069H64.7071C64.6157 26.3638 64.1516 28.6997 63.35 30.9566C63.35 30.9781 63.35 30.9925 63.35 31.0141V39.2366L68.9895 45.5041H70.4311V39.1791H71.8796L76.1831 45.5041H83.7916L78.3982 38.0434C80.5007 36.9797 81.9985 34.9959 81.9985 31.6538C81.9985 31.1722 81.9633 30.7122 81.9071 30.2809H87.3849V45.5041H94.473V30.2809H100V24.0997H81.8649L81.8578 24.1069ZM72.9274 33.8963H70.2623V29.8497H72.9274C74.2705 29.8497 75.051 30.6762 75.051 31.8766C75.051 33.0769 74.2705 33.8963 72.9274 33.8963ZM18.311 24.1069V45.5112H25.392V39.9194H27.4664C32.7966 39.9194 36.868 38.0219 36.868 32.0275C36.868 26.0331 32.7966 24.1069 27.4664 24.1069H18.311ZM30.019 32.0275C30.019 33.4938 28.9923 34.1119 27.4172 34.1119H25.2303V29.9216H27.4172C28.9923 29.9216 30.019 30.5397 30.019 32.0275Z" fill="white"/>
</svg>
